<?xml version="1.0" encoding="iso-8859-1"?>
<!-- Uploaded to: SVG Repo, www.svgrepo.com, Generator: SVG Repo Mixer Tools -->
<svg height="800px" width="800px" version="1.1" id="Layer_1" xmlns="http://www.w3.org/2000/svg" xmlns:xlink="http://www.w3.org/1999/xlink" 
	 viewBox="0 0 512 512" xml:space="preserve">
<path style="fill:#5286FA;" d="M314.182,232.727c0-6.426-5.208-11.636-11.636-11.636h-93.091c-6.428,0-11.636,5.21-11.636,11.636
	v58.45c-1.282-0.188-2.576-0.316-3.879-0.316c-7.159,0-14.161,2.901-19.211,7.956c-5.059,5.064-7.961,12.068-7.961,19.217
	c0,7.154,2.904,14.159,7.958,19.205c5.056,5.064,12.058,7.967,19.214,7.967c7.157,0,14.162-2.903,19.2-7.947
	c5.069-5.05,7.975-12.057,7.975-19.226c0-0.152-0.02-0.301-0.023-0.451v-73.218h69.818v46.814c-1.283-0.188-2.576-0.316-3.88-0.316
	c-7.159,0-14.161,2.901-19.211,7.956c-5.06,5.064-7.961,12.068-7.961,19.217c0,7.154,2.904,14.159,7.958,19.205
	c5.056,5.064,12.06,7.967,19.214,7.967c7.157,0,14.162-2.903,19.2-7.947c5.069-5.05,7.975-12.057,7.975-19.226
	c0-0.141-0.019-0.281-0.022-0.422V232.727L314.182,232.727z"/>
<path style="fill:#E0E0E2;" d="M380.121,170.636h-2.586C357.432,119.814,310.557,84.174,256,78.44
	c-5.112-0.538-10.285-0.833-15.515-0.833c-79.017,0-143.709,62.498-147.242,140.659C40.603,225.747,0,271.115,0,325.787
	c0,59.885,48.719,108.606,108.606,108.606H256h124.121c72.718,0,131.879-59.159,131.879-131.879
	C512,229.796,452.839,170.636,380.121,170.636z M306.229,337.261c-5.038,5.042-12.043,7.947-19.2,7.947
	c-7.154,0-14.158-2.904-19.214-7.967c-5.053-5.046-7.958-12.051-7.958-19.205c0-7.148,2.901-14.153,7.961-19.217
	c5.05-5.056,12.052-7.956,19.211-7.956c1.305,0,2.597,0.129,3.88,0.316v-46.815H256h-34.909v73.219
	c0.003,0.15,0.023,0.299,0.023,0.451c0,7.168-2.906,14.175-7.975,19.226c-5.038,5.042-12.043,7.947-19.2,7.947
	c-7.154,0-14.158-2.904-19.214-7.967c-5.053-5.046-7.958-12.051-7.958-19.205c0-7.148,2.901-14.153,7.961-19.217
	c5.05-5.056,12.051-7.956,19.211-7.956c1.303,0,2.597,0.129,3.879,0.316v-58.452c0-6.426,5.208-11.636,11.636-11.636H256h46.545
	c6.428,0,11.636,5.21,11.636,11.636v84.885c0.003,0.141,0.022,0.281,0.022,0.422C314.204,325.202,311.298,332.21,306.229,337.261z"
	/>
<path style="fill:#FF7956;" d="M197.818,232.727v58.45c-1.282-0.188-2.576-0.316-3.879-0.316c-7.159,0-14.161,2.901-19.211,7.956
	c-5.059,5.064-7.961,12.068-7.961,19.217c0,7.154,2.904,14.159,7.958,19.205c5.056,5.064,12.058,7.967,19.214,7.967
	c7.157,0,14.162-2.903,19.2-7.947c5.069-5.05,7.975-12.057,7.975-19.226c0-0.152-0.02-0.301-0.023-0.451v-73.218H256v-23.273
	h-46.545C203.027,221.091,197.818,226.301,197.818,232.727z"/>
<path style="fill:#FFA733;" d="M290.909,244.364v46.814c-1.283-0.188-2.576-0.316-3.88-0.316c-7.159,0-14.161,2.901-19.211,7.956
	c-5.06,5.064-7.961,12.068-7.961,19.217c0,7.154,2.904,14.159,7.958,19.205c5.056,5.064,12.06,7.967,19.214,7.967
	c7.157,0,14.162-2.903,19.2-7.947c5.069-5.05,7.975-12.057,7.975-19.226c0-0.141-0.019-0.281-0.022-0.422v-84.883
	c0-6.426-5.208-11.636-11.636-11.636H256v23.273H290.909z"/>
<path style="fill:#C6C5CA;" d="M221.091,244.364v73.219c0.003,0.15,0.023,0.299,0.023,0.451c0,7.168-2.906,14.175-7.975,19.226
	c-5.038,5.044-12.043,7.947-19.2,7.947c-7.154,0-14.158-2.904-19.214-7.967c-5.053-5.046-7.958-12.051-7.958-19.205
	c0-7.148,2.901-14.153,7.961-19.217c5.05-5.056,12.052-7.956,19.211-7.956c1.303,0,2.597,0.129,3.879,0.316v-58.452
	c0-6.426,5.208-11.636,11.636-11.636H256V78.44c-5.112-0.538-10.285-0.833-15.515-0.833c-79.017,0-143.709,62.498-147.242,140.659
	C40.603,225.749,0,271.115,0,325.789c0,59.885,48.719,108.605,108.606,108.605H256v-190.03H221.091z"/>
</svg>