<?xml version="1.0" encoding="utf-8"?>
<!-- Generator: Adobe Illustrator 27.1.0, SVG Export Plug-In . SVG Version: 6.00 Build 0)  -->
<svg version="1.1" id="Layer_1" xmlns="http://www.w3.org/2000/svg" xmlns:xlink="http://www.w3.org/1999/xlink" x="0px" y="0px"
	 viewBox="0 0 200 200" style="enable-background:new 0 0 200 200;" xml:space="preserve">
<style type="text/css">
	.st0{fill:#FDC30E;}
	.st1{fill:#FDDE83;}
	.st2{fill:#FDE391;}
	.st3{fill:#E6E5E6;}
	.st4{fill:#E7E6E6;}
	.st5{fill:#E8E8E9;}
	.st6{fill:#FEF9EA;}
	.st7{fill:#E8E8E8;}
	.st8{fill:#DEDDDF;}
	.st9{fill:#FDC211;}
</style>
<g>
	<g>
		<path class="st0" d="M26.71,164.51c-8.77-0.88-16.69-7.67-19.21-16.38c-0.32-1.1-0.65-2.28-1.77-2.94c0-0.61,0-1.22,0-1.83
			c1.46-0.96,0.9-2.46,0.9-3.74c0.02-33.85,0.02-67.7-0.02-101.55c0-1.42,0.64-3.08-0.88-4.22c0-0.91,0-1.83,0-2.74
			c2.93-9.56,9.04-16.21,18.22-20.08c0.61,0,1.21,0,1.82,0c1.29,1.6,3.09,0.86,4.65,0.87c12.38,0.1,24.75,0.11,37.13,0.15
			c1.24,6.85,4.01,13.24,6.07,19.84c4.18,13.42,8.49,26.8,12.78,40.18c2.56,7.97,4.79,16.2,7.3,24.2c3.2,10.2,6.35,20.46,9.87,30.58
			c3.66,10.5,6.41,21.3,10.4,31.71c0.68,1.77,0.73,3.77,1.07,5.67c-2.58,0.04-5.16,0.11-7.74,0.11
			C80.44,164.42,53.57,164.46,26.71,164.51z M68.49,96.24c-0.02-2.6,1.07-5.74-3.23-6.17c-0.75-0.08-1.78-1.38-2-2.27
			c-2.43-10.29-5.31-20.52-5.54-31.19c-0.06-2.86,0.13-5.57-3.72-5.85c-2.94-0.22-3.67,2.14-4.6,4.14
			c-3.22,6.98-6.29,14.02-9.58,20.96c-4.05,8.54-6.91,17.53-10.44,26.26c-2.27,5.6-3.16,11.83-5.94,16.95
			c-2.53,4.66,1.29,4.69,2.77,5.67c2.28,1.51,3.98-0.04,4.79-2.64c2.27-7.21,4.73-14.36,7-21.57c0.87-2.77,1.69-4.04,5.34-3.33
			c4.49,0.88,8.83,3.05,13.62,2.39c1.87-0.26,2.65,0.62,3.54,2.51c2.87,6.15,5.05,12.65,9.1,18.22c2.65,3.66,3.59,3.57,6.29-0.17
			c1.99-2.74-0.07-4.52-1.04-6.46C72.06,108.11,68,103.01,68.49,96.24z"/>
		<path class="st1" d="M5.74,33.86c1.52,1.14,0.88,2.79,0.88,4.22c0.04,33.85,0.04,67.7,0.02,101.55c0,1.28,0.56,2.78-0.9,3.74
			C5.74,106.87,5.74,70.37,5.74,33.86z"/>
		<path class="st2" d="M67.55,12.07c-12.38-0.04-24.75-0.04-37.13-0.15c-1.56-0.01-3.35,0.73-4.65-0.87c13.97,0,27.94,0,41.91,0
			C67.65,11.39,67.6,11.73,67.55,12.07z"/>
		<path class="st3" d="M167.33,27.98c-22.37,0-44.74,0-67.11,0c-0.01-0.26-0.01-0.52-0.02-0.78c22.37,0,44.75,0,67.12,0
			C167.33,27.46,167.33,27.72,167.33,27.98z"/>
		<path class="st4" d="M191.18,169.83c0-39.66,0-79.06,0-118.17C193.13,54.4,193.3,164.72,191.18,169.83z"/>
		<path class="st5" d="M180.84,163.27c0-35.16,0-70.31,0-105.47c0.15,0,0.3,0,0.45,0c0,35.15,0,70.3,0,105.44
			C181.14,163.25,180.99,163.26,180.84,163.27z"/>
		<path class="st6" d="M26.71,164.51c26.86-0.05,53.73-0.1,80.59-0.15c2.58-0.01,5.16-0.07,7.74-0.11
			c-0.93,1.44-2.41,1.02-3.71,1.02c-27.07,0.02-54.13,0.02-81.2,0.01C28.95,165.27,27.68,165.52,26.71,164.51z"/>
		<path class="st7" d="M164.97,180.62c-28.12,0-56.23,0-84.35,0c0-0.15,0-0.3,0-0.46c28.13,0,56.27,0,84.4,0
			C165,180.32,164.98,180.47,164.97,180.62z"/>
		<path class="st8" d="M84.25,193.77c25.74,0,51.47,0,77.21,0c0,0.15,0,0.3,0,0.46c-25.7,0-51.4,0-77.1,0
			C84.33,194.08,84.29,193.93,84.25,193.77z"/>
		<path class="st9" d="M52.3,90.41c-2-0.39-4.2-0.71-6.35-1.26c-2.04-0.52-2.42-2.06-1.69-3.84c1.56-3.81,3.19-7.59,4.88-11.35
			c0.31-0.69,0.33-2.09,1.64-1.61c0.58,0.21,1.32,1.1,1.3,1.66c-0.12,4.71,2.4,8.8,3,13.37C55.44,90.04,54.74,90.61,52.3,90.41z"/>
	</g>
</g>
</svg>
