<?xml version="1.0" encoding="utf-8"?>
<!-- Generator: Adobe Illustrator 27.1.0, SVG Export Plug-In . SVG Version: 6.00 Build 0)  -->
<svg version="1.1" id="Layer_1" xmlns="http://www.w3.org/2000/svg" xmlns:xlink="http://www.w3.org/1999/xlink" x="0px" y="0px"
	 viewBox="0 0 1920 1080" style="enable-background:new 0 0 1920 1080;" xml:space="preserve">
<style type="text/css">
	.st0{fill:#FFFFFF;}
	.st1{fill:#FFAA5A;}
	.st2{fill:#DBD8DB;}
	.st3{fill:#E9E7E9;}
	.st4{fill:#E5E2E5;}
	.st5{fill:#FFE8D3;}
	.st6{fill:#F2F1F2;}
	.st7{fill:#E6E3E6;}
	.st8{fill:#FFC263;}
	.st9{fill:#FFD99F;}
	.st10{fill:#FFE3B6;}
	.st11{fill:#FFE1C5;}
	.st12{fill:#ECEAEC;}
	.st13{fill:#FFF7EF;}
	.st14{fill:#FBDFB3;}
	.st15{fill:#FFE7C2;}
	.st16{fill:#EFE2D9;}
	.st17{fill:#F5CCA8;}
</style>
<g>
	<path class="st0" d="M639,724.99c0-190.33,0-380.66,0-570.99c14.77,0,29.49,0,44.21,0c-3.25,5.83-26.02,26.47-10.78,32.25
		c0.02,88.4,0.05,176.8,0.07,265.2c-0.04,1.2-0.09,2.41-0.13,3.61c-23.67,4.23,27.93,50.65,27.57,31.05c3.97,0,7.95,0.01,11.92,0.01
		c0.01,19.1,0.01,38.2,0.02,57.3c-11.01-1.63,0.92,15.45,6.26,16.94c8.2,2.29,14.54-3.26,14.06-10.97
		c11.61-12.61,23.21-25.22,34.84-37.81c7.49-8.11,15.02-16.17,22.53-24.26c0.78-0.43,1.57-0.87,2.35-1.3
		c38.64,0.04,77.28,0.07,115.93,0.11c0,53.95,0,107.9,0,161.85c0,14.31-0.15,28.63,0,42.94c0.09,8.85-3.59,18.08-2.03,26.6
		c1.68,9.19,9.05,19.99,17.18,24.75c3.97,2.33,20.21,8.79,19.5-0.57c0,0-0.07-0.08-0.07-0.08c51.81,0.05,103.62,0.1,155.43,0.15
		c4.88,12.58,19.42,23.5,28.62,33.33c10.99,11.74,22.62,23.07,32.32,35.9c-105.95,0-211.9,0-317.85,0c0-26.41,0.03-52.82-0.05-79.23
		c-0.01-2.26-0.74-4.52-1.14-6.77c-0.4,0-0.8,0-1.19,0s-0.8,0-1.19,0C771.24,724.99,705.12,724.99,639,724.99z"/>
	<path class="st0" d="M968.8,154c94.4,0,188.8,0,283.2,0c0,219,0,438,0,657c-22.7,0-45.41,0-68.11,0
		c-0.28-3.88,1.36-8.38-3.52-10.75c0-19.3,0-38.61,0-58.52c3.26,0,5.78,0,8.3,0c4.49,14.3,49.35-17.66,30.07-31.08
		c-0.03-1.16-0.05-2.32-0.08-3.48c0.36-2.08,1.04-4.16,1.04-6.24c0.05-83.91,0.05-167.82,0-251.73c0-2.08-0.68-4.16-1.04-6.24
		c1.58-17.68-13.18-30.51-25.14-32.3c-2.29-0.35-4.59-0.99-6.88-1c-44.73-0.09-89.45-0.11-134.18-0.15
		c0-56.64,0.01-113.27-0.05-169.91c0-2.26-0.75-4.52-1.14-6.78c-0.4,0-0.8,0-1.19,0s-0.8,0-1.19,0c-20.71,0-41.42,0-62.14,0
		c-1.27-17.25,1.63-34.5-1.97-51.89C982.39,169.55,977.96,160.73,968.8,154z"/>
	<path class="st0" d="M639,724.99c66.12,0,132.24,0,198.36,0c0,28.67,0,57.34,0,86.01c-65.98,0-131.96,0-198.36,0
		C639,782.33,639,753.66,639,724.99z"/>
	<path class="st1" d="M1173.13,811c-2.39,0-4.78,0-7.17,0c-6.85-7.1-13.78-14.14-20.54-21.33c-15.04-16-30-32.07-44.99-48.11
		c-25.23-4.2-53.46-1.04-79.03-1.04c-25.54,0-53.82-3.34-78.98,1.09c0,0,0.07,0.08,0.07,0.08c-1.98-0.75-3.94-1.56-5.94-2.25
		c-3.98-1.36-7.98-2.66-11.97-3.98c-0.01-9.22-0.01-9.22-8.06-9.28c-2.08-6.27-4.26-12.52-6.16-18.85
		c-0.33-1.11,0.55-2.58,0.88-3.89c0.06-0.59,0.16-1.19,0.16-1.78c0.01-70.43,0.03-140.87-0.02-211.3c0-1.44-0.72-2.89-1.11-4.33
		l0.05-0.03c0.3-0.77,0.59-1.53,0.89-2.3c-0.01-6.78-0.03-13.57-0.04-20.35c0.09-8.05-0.39-16.16,0.47-24.13
		c0.52-4.8,3.11-9.38,4.77-14.06c3.12-1.19,6.24-2.39,9.36-3.58c0,88.72-0.01,177.45,0.05,266.17c0,2.46,0.75,4.92,1.14,7.38
		c0.75,10.08,6.65,17.81,14.6,23.54c9.93,7.18,16.95,5.42,28.58,5.14c26.12-0.63,52.33-0.01,78.46-0.01
		c53.13,0,106.84-2.25,159.91,0.3c0.22,0.52,0.43,1.03,0.65,1.55c-4.37,3.51-12.78,7.49-13.3,13.79c-1.59,0.43-3.18,0.85-4.77,1.28
		c-3.85,0-7.7,0-11.78,0c0,20.83,0,40.81,0,60.8C1177.26,804.67,1175.2,807.84,1173.13,811z"/>
	<path class="st0" d="M968.8,154c9.16,6.73,13.59,15.55,15.95,26.95c3.6,17.38,0.7,34.64,1.97,51.89c0,58.9,0,117.79,0,176.69
		c-1.99-0.01-3.99-0.02-5.98-0.03c0-74.16-0.11-148.33,0.11-222.49c0.04-13.4-10.36-30.82-27.59-31.84c0-0.39,0-0.78,0-1.17
		C958.45,154,963.62,154,968.8,154z"/>
	<path class="st0" d="M953.27,154c0,0.39,0,0.78,0,1.17c-83.24,0.01-166.47-0.02-249.71,0.12c-4.01,0.01-8.01,1.46-12.01,2.25
		c-10.02,5.47-16.75,13.3-17.94,25.08c-0.39,1.21-0.79,2.42-1.18,3.63c-15.24-5.78,7.53-26.42,10.78-32.25
		C773.23,154,863.25,154,953.27,154z"/>
	<path class="st0" d="M1100.44,741.56c14.99,16.04,29.95,32.12,44.99,48.11c6.76,7.19,13.69,14.22,20.54,21.33
		c-2.39,0-4.78,0-7.17,0c-9.7-12.83-21.33-24.17-32.32-35.9c-9.2-9.83-23.75-20.75-28.62-33.33
		C1098.72,741.7,1099.58,741.63,1100.44,741.56z"/>
	<path class="st0" d="M837.36,811c0-28.67,0-57.34,0-86.01c0.4,0,0.8,0,1.19,0c0,28.67,0,57.34,0,86.01
		C838.16,811,837.76,811,837.36,811z"/>
	<path class="st0" d="M838.55,811c0-28.67,0-57.34,0-86.01c0.4,0,0.8,0,1.19,0c0,28.67,0,57.34,0,86.01
		C839.35,811,838.95,811,838.55,811z"/>
	<path class="st0" d="M839.75,811c0-28.67,0-57.34,0-86.01c0.4,2.26,1.14,4.51,1.14,6.77c0.08,26.41,0.05,52.82,0.05,79.23
		C840.55,811,840.15,811,839.75,811z"/>
	<path class="st0" d="M1173.13,811c2.06-3.16,4.13-6.33,6.19-9.49c0.35-0.42,0.7-0.84,1.05-1.26c4.88,2.37,3.24,6.87,3.52,10.75
		C1180.3,811,1176.72,811,1173.13,811z"/>
	<path class="st2" d="M911.18,463.36c0.01,6.78,0.03,13.57,0.05,20.35c-1.52-0.01-3.04-0.01-4.57-0.02
		c-17.63-6.81-42.93-2.36-61.78-2.37c-7.97,0-56.71-4.75-55.3,6.01c-7.51,8.09-15.04,16.15-22.53,24.26
		c-11.63,12.59-23.23,25.21-34.84,37.81c-10.23,9.88-15.52,5.25-19.16-2.38c0.03-19.12,0.05-38.23,0.08-57.35
		c4.99,0.31,5.3-3.33,3.41-6.72c-3.6-6.44-9.25-1.47-14.2,0.74c-0.4,0-0.8,0-1.2,0c0.53-6.57-13.23-9.85-16.82-14.43
		c-3.79-4.83-3.47-15.8-11.78-14.25l-0.17,0.06c0.04-1.2,0.09-2.41,0.13-3.61c0.38-2.47,1.1-4.94,1.1-7.41
		c0.07-86.33,0.06-172.66,0.07-258.98c1.97-1.51,5.17-2.69,5.69-4.59c2.05-7.51,7.16-11.99,13.39-15.72
		c0.01,88.4,0.03,176.79,0.04,265.19c-0.01,1.59-0.03,3.18-0.04,4.78c-7.2,0.4-5.1,5.62-4.16,9.19
		c4.43,16.97,16.42,25.27,35.33,25.35c59.65,0.25,119.3,0.11,178.95,0.04c2.06,0,4.12-0.75,6.19-1.14c0.4-0.4,0.79-0.8,1.19-1.19
		c0-1.19,0-2.39,0-3.58C910.56,463.38,910.87,463.37,911.18,463.36z"/>
	<path class="st0" d="M924.59,735.46c3.99,1.32,7.99,2.62,11.97,3.98c2,0.69,3.96,1.49,5.94,2.25c0.71,9.36-15.53,2.9-19.5,0.57
		c-8.12-4.76-15.49-15.56-17.18-24.75c-1.56-8.52,2.11-17.75,2.03-26.6c-0.14-14.31,0-28.63,0-42.94c0-53.95,0-107.9,0-161.85
		c0.83-0.04,1.66-0.08,2.48-0.12c0,0-0.05,0.03-0.05,0.03c-0.01,70.57-0.03,141.15,0,211.72c0,1.9,0.63,3.79,0.96,5.69
		c-0.32,1.31-1.21,2.78-0.88,3.89c1.89,6.33,4.07,12.57,6.16,18.85C919.21,729.28,921.9,732.37,924.59,735.46z"/>
	<path class="st3" d="M673.67,185.06c-0.01,86.33-0.01,172.66-0.07,258.98c0,2.47-0.72,4.94-1.1,7.41
		c-0.02-88.4-0.05-176.8-0.07-265.2c0.39-1.21,0.79-2.42,1.18-3.63C673.63,183.44,673.65,184.25,673.67,185.06z"/>
	<path class="st0" d="M699.94,486.11c0.36,19.6-51.24-26.81-27.57-31.05c0,0,0.17-0.06,0.17-0.06c0,0.41-0.01,0.82-0.01,1.22
		c0.46,1.7,0.9,3.4,1.38,5.09c3.45,12.12,10.5,20.45,23.6,22.42C698.32,484.52,699.13,485.31,699.94,486.11z"/>
	<path class="st4" d="M910.34,486.01c-0.83,0.04-1.66,0.08-2.48,0.12c-38.64-0.03-77.28-0.07-115.93-0.1
		c2.15-0.78,4.3-2.22,6.45-2.23c36.09-0.14,72.19-0.1,108.28-0.11c1.52,0.01,3.05,0.01,4.57,0.02
		C910.93,484.48,910.64,485.24,910.34,486.01z"/>
	<path class="st2" d="M906.66,483.69c-36.09,0-72.19-0.04-108.28,0.11c-2.15,0.01-4.3,1.45-6.45,2.23c-0.78,0.43-1.57,0.87-2.35,1.3
		c-1.41-10.76,47.33-6.01,55.3-6.01C863.73,481.32,889.03,476.87,906.66,483.69z"/>
	<path class="st5" d="M1100.44,741.56c-0.86,0.07-1.72,0.14-2.59,0.2c-51.81-0.05-103.62-0.1-155.43-0.15
		c25.16-4.43,53.44-1.09,78.98-1.09C1046.98,740.52,1075.21,737.36,1100.44,741.56z"/>
	<path class="st0" d="M713.04,547.01c3.64,7.63,8.93,12.27,19.16,2.38c0.48,7.7-5.86,13.25-14.06,10.97
		c-5.34-1.49-17.27-18.57-6.26-16.94C712.27,544.62,712.66,545.82,713.04,547.01z"/>
	<path class="st6" d="M713.04,547.01c-0.39-1.2-0.77-2.39-1.16-3.59c-0.01-19.1-0.01-38.2-0.02-57.31c0.4,0,0.8-0.01,1.2-0.01
		c0.02,1.19,0.04,2.37,0.06,3.56C713.09,508.78,713.07,527.9,713.04,547.01z"/>
	<path class="st7" d="M713.06,486.11c-0.4,0-0.8,0.01-1.2,0.01c-3.97,0-7.95-0.01-11.92-0.01c-0.81-0.79-1.62-1.59-2.43-2.38
		c0.41-0.02,0.82-0.04,1.23-0.06c0.8,0.01,1.59,0.01,2.39,0.02c0.4,0,0.8,0,1.2,0C705.85,484.78,710.39,481.31,713.06,486.11z"/>
	<path class="st8" d="M1218.66,707.18c0.03,1.16,0.05,2.32,0.08,3.48c-0.47,2.68-0.93,5.35-1.4,8.03c-1.19-1.08-2.38-2.17-3.58-3.25
		c-2.46-0.4-4.92-1.14-7.38-1.14c-78.95-0.06-157.91,0-236.86-0.15c-5.42-0.01-10.84-1.49-16.25-2.29c-2.72-1.7-6.22-2.82-8-5.22
		c-3.78-5.08-6.67-10.82-9.92-16.28c0-91.18,0-182.37,0-273.55c-0.4-1.92-0.79-3.83-1.19-5.75c0.78-0.11,1.57-0.22,2.35-0.34
		c14.75-0.01,29.5-0.02,44.25-0.02c32.58,0.05,65.16,0.14,97.73,0.13c38.34-0.01,76.68-0.09,115.01-0.14
		c11.96,1.8,26.73,14.62,25.14,32.3c-0.04,13.92-0.11,27.83-0.11,41.75C1218.57,558.87,1218.62,633.03,1218.66,707.18z
		 M1020.38,613.83l-0.39,0.14c0.13-4.8,0.26-9.61,0.39-14.41c6.25-1.31,13.53-18.32,9.16-22.78c3.28-4.34,6.55-8.67,9.83-13.01
		c6.17,1.73,11.4-2.06,13.08-9.48c2.77-1.29,5.55-2.58,8.32-3.87c2.4-0.64,4.8-1.28,7.2-1.92c9.9,0.3,19.8,0.65,29.71,0.82
		c1.6,0.03,3.21-0.8,4.82-1.23c2.39-3.54,4.78-7.08,7.17-10.61c-1-7.23-3.97-9.59-11.81-9.39c-11.53-0.09-30.33,3.72-39.96-3.89
		c-6.56-5.18-13.02-21.71-5.36-28.34c4.34-3.32,8.68-6.64,13.01-9.95c1.97-0.32,3.95-0.64,5.92-0.96c4.02,1.87,8.03,3.74,12.05,5.62
		c9.11,9.6,22.05,1.38,15.84-10.41c-4.91-9.32-18.44-16.02-28.57-16.07c-26.97-0.13-39.59,25.03-39.62,48.35
		c0.18,7.55,3.33,13.89,7.72,19.83c0.95,1.28,0.98,3.23,1.43,4.88c-4.67,3.42-9.5,6.66-13.96,10.33c-2.75,2.26-4.95,5.18-7.4,7.81
		c-3.25,5.18-6.51,10.35-9.76,15.53c-0.34,0.82-0.68,1.63-1.03,2.45c-1.93,6.37-3.85,12.74-5.78,19.1c-0.09,2.79,0.91,6.4-0.47,8.23
		c-5.33,7.07-0.76,14.45-0.06,20.88c1.95,18.09,11.93,33.06,24.24,46.31c6.79,3.89,13.58,7.78,20.38,11.67
		c12.91,7.64,25.55,10.16,40.68,7.33c10.57-1.98,30.52-8.73,35.93-19.07c7.76-14.86-8.2-16.08-17.35-11.75
		c-12.49,5.91-23.22,12.56-37.75,10.22c-5.45-8.72-12.54-8.58-20.73-13.74c-6.66-4.2-12.76-10.86-19.01-15.75
		c-1.43-2.42-2.86-4.84-4.29-7.26c1.3-0.88,3.81-2.38,3.72-2.55C1025.41,622.44,1022.87,618.15,1020.38,613.83z"/>
	<path class="st0" d="M986.73,409.53c0-58.9,0-117.79,0-176.69c20.71,0,41.42,0,62.14,0c0,58.9,0,117.79,0,176.69
		C1028.15,409.53,1007.44,409.53,986.73,409.53z"/>
	<path class="st9" d="M1218.66,707.18c-0.04-74.15-0.08-148.3-0.11-222.45c0-13.92,0.07-27.83,0.11-41.75
		c0.36,2.08,1.04,4.16,1.04,6.23c0.05,83.91,0.05,167.82,0,251.73C1219.69,703.02,1219.02,705.1,1218.66,707.18z"/>
	<path class="st0" d="M1217.34,718.69c0.47-2.68,0.93-5.35,1.4-8.03c19.29,13.42-25.57,45.38-30.07,31.08
		c0.81-0.34,1.62-0.68,2.44-1.02c1.59-0.43,3.18-0.85,4.77-1.28c8.82-1.01,19.19-10.84,20.29-19.23
		C1216.56,719.7,1216.95,719.19,1217.34,718.69z"/>
	<path class="st10" d="M986.73,409.53c20.71,0,41.42,0,62.14,0c0.4,0,0.8,0,1.19,0c0.4,0,0.8,0,1.19,0c0.4,0,0.8,0,1.19,0
		c44.73,0.03,89.45,0.05,134.18,0.15c2.3,0,4.59,0.65,6.88,1c-38.34,0.05-76.68,0.14-115.01,0.14c-32.58,0-65.16-0.08-97.73-0.13
		c0-0.32,0-0.64,0.01-0.96l-0.03-0.22C982.74,409.51,984.73,409.52,986.73,409.53z"/>
	<path class="st0" d="M1050.06,409.53c-0.4,0-0.8,0-1.19,0c0-58.9,0-117.79,0-176.69c0.4,0,0.8,0,1.19,0
		C1050.06,291.74,1050.06,350.63,1050.06,409.53z"/>
	<path class="st0" d="M1052.45,409.53c-0.4,0-0.8,0-1.19,0c0-58.9,0-117.79,0-176.69c0.4,2.26,1.14,4.52,1.14,6.78
		C1052.46,296.26,1052.45,352.89,1052.45,409.53z"/>
	<path class="st0" d="M1051.25,232.84c0,58.9,0,117.79,0,176.69c-0.4,0-0.8,0-1.19,0c0-58.9,0-117.79,0-176.69
		C1050.45,232.84,1050.85,232.84,1051.25,232.84z"/>
	<path class="st11" d="M1191.1,740.71c-0.81,0.34-1.62,0.68-2.44,1.02c-2.52,0-5.04,0-8.3,0c0,19.91,0,39.21,0,58.52
		c-0.35,0.42-0.7,0.84-1.05,1.26c0-19.98,0-39.96,0-60.8C1183.4,740.71,1187.25,740.71,1191.1,740.71z"/>
	<path class="st12" d="M936.51,410.71c-0.78,0.11-1.57,0.22-2.35,0.34c-1.22,0.62-2.43,1.25-3.65,1.87
		c-4.7,4.08-9.39,8.16-14.09,12.25c-1.66,4.68-4.25,9.26-4.77,14.06c-0.86,7.97-0.38,16.08-0.47,24.13
		c-0.31,0.01-0.62,0.02-0.94,0.04c-62.14-0.01-124.27-0.02-186.41-0.02c-6.04-5.64-14.19-6.61-19.75-13.12
		c-5.5-6.44-5.41-14.33-11.3-20.31c-0.01-88.4-0.03-176.79-0.04-265.19c-0.4-2.4-0.8-4.81-1.2-7.21c4-0.78,8.01-2.24,12.01-2.25
		c83.24-0.14,166.47-0.11,249.71-0.12c17.22,1.02,27.62,18.44,27.59,31.84c-0.22,74.16-0.11,148.33-0.11,222.49
		c0,0,0.03,0.22,0.03,0.22c-12.87-0.03-25.75-0.11-38.62-0.05C940.27,409.68,938.39,410.35,936.51,410.71z M871.14,377.24
		c2.27,5.64,4.54,11.28,6.81,16.92c-0.04,0.41,0.05,0.79,0.25,1.14c2.32,6.3,4.64,12.6,6.96,18.89c3.25,2.31,3.13,9.1,9.56,7.19
		c10.01-2.69,9.44-7.81,7.85-15.43c-1.54-7.37-5.15-14.31-7.85-21.43c-1.15-3.18-2.3-6.35-3.45-9.53c-1.7-4.78-3.41-9.55-5.11-14.33
		c-0.41-1.6-0.83-3.19-1.24-4.79c-1.92-5.96-3.83-11.93-5.75-17.89c1.22-6.96,0.45-10.12-2.57-16.46c-1.39-2.92-5.55-7.46-6.3-9.62
		c-1.54-4.44-0.34-9.68-2.29-14.91c-1.86-5-4.2-9.79-6.37-14.65c3.08-3.7-8.8-22.6-10.22-26.74c-2.61-7.58-0.89-24.25-11.53-27.55
		c-0.22-0.34-0.36-0.71-0.42-1.11c-0.66-13.66-15.22-12.95-24.47-5.93c-5.64,4.29-15.94,26.32-9.03,30.81
		c-0.25,0.45-0.49,0.91-0.74,1.36c-7.15-0.35-13.18,21.84-9.84,26.14c-5.19,3.78-16.66,21.04-8.54,26.26
		c-0.27,0.44-0.55,0.89-0.82,1.33c-8.65,1-6.13,9.45-8.94,14.22c-1.72,2.92-5.5,7.61-0.69,11.74c-1.25,2.89-2.51,5.78-3.76,8.67
		c-2.34,3.4-4.66,6.82-7.02,10.2c-2.1,3.01-1.34,5.52,1.26,7.74c-0.08,0.77-0.16,1.54-0.24,2.31c-9.52,5.43-11.36,18.63-15.1,28.47
		c-1.67,4.41-12.19,25.15-1.6,25.34c2.97,5.61,7.23,7.77,13.34,5.02c2.25,8.81,9.42-3.04,10.75-5.99
		c2.56-5.69,7.13-17.16,3.57-22.95c-0.04-0.39,0.04-0.76,0.24-1.1c1.84-0.77,5.22-1.51,5.24-2.31c0.06-3.19,4.69-6.97-0.71-9.69
		c0.04-0.39,0.07-0.78,0.11-1.18C812.03,377.34,841.59,377.29,871.14,377.24z"/>
	<path class="st1" d="M1216.17,720.21c-1.1,8.39-11.47,18.22-20.29,19.23c0.51-6.3,8.93-10.28,13.3-13.79
		c-0.22-0.52-0.43-1.03-0.65-1.55c-53.07-2.56-106.78-0.3-159.91-0.3c-26.13,0-52.34-0.62-78.46,0.01
		c-11.63,0.28-18.64,2.04-28.58-5.14c-7.94-5.74-13.85-13.47-14.6-23.54c0.4,0,0.8,0,1.19,0c3.33,9.77,7.84,18.45,17.32,24.07
		c6.88,4.08,10.81,4.99,14.94,1.01C1045.68,720.21,1130.92,720.21,1216.17,720.21z"/>
	<path class="st1" d="M926.98,695.13c-0.4-2.46-1.14-4.92-1.14-7.38c-0.06-88.72-0.05-177.45-0.05-266.17c0-0.4,0-0.8,0-1.19
		c0.8,2.66,2.3,5.32,2.29,7.98C927.8,517.29,927.38,606.21,926.98,695.13z"/>
	<path class="st1" d="M925.78,420.38c0,0.4,0,0.8,0,1.19c-3.12,1.19-6.24,2.39-9.36,3.58c4.7-4.08,9.39-8.16,14.09-12.24
		c0.41,3.52,1.18,7.04,1.19,10.56c0.07,88.24,0.06,176.48,0.05,264.72c0,10.82,3.47,19.99,13.27,25.5
		c4.83,2.72,10.26,4.37,15.42,6.51c-4.13,3.98-8.06,3.06-14.94-1.01c-9.48-5.62-14-14.29-17.32-24.07
		c6.71-47.36,2.39-97.71,2.39-145.55c0-25.29,0-50.59,0-75.88C930.56,462.75,936.51,424.39,925.78,420.38z"/>
	<path class="st13" d="M911.25,703.45c-0.33-1.9-0.96-3.79-0.96-5.69c-0.04-70.57-0.02-141.15,0-211.72
		c0.39,1.44,1.11,2.89,1.11,4.33c0.05,70.43,0.03,140.87,0.02,211.3C911.41,702.26,911.31,702.86,911.25,703.45z"/>
	<path class="st1" d="M924.59,735.46c-2.69-3.09-5.38-6.19-8.06-9.28C924.58,726.24,924.58,726.24,924.59,735.46z"/>
	<path class="st2" d="M691.55,157.54c0.4,2.4,0.8,4.81,1.2,7.21c-6.23,3.73-11.34,8.2-13.39,15.72c-0.52,1.91-3.72,3.08-5.69,4.59
		c-0.02-0.81-0.04-1.62-0.06-2.43C674.8,170.84,681.53,163.01,691.55,157.54z"/>
	<path class="st2" d="M723.84,463.37c62.14,0.01,124.27,0.02,186.41,0.02c0,1.19,0,2.39,0,3.58c-17.47,0-188.82,5.98-189.99-3.57
		C721.45,463.39,722.64,463.38,723.84,463.37z"/>
	<path class="st2" d="M720.26,463.41c1.17,9.55,172.52,3.57,189.99,3.57c-0.4,0.4-0.79,0.8-1.19,1.19
		c-44.83,0-89.66,0.04-134.49-0.02c-19.74-0.03-41.73,2.02-61.19-2.06c-9.03-1.89-32.29-19.93-20.62-30.17
		C695.88,451.12,703.68,461.64,720.26,463.41z"/>
	<path class="st2" d="M692.76,435.91c-11.67,10.25,11.59,28.28,20.62,30.17c19.46,4.08,41.46,2.04,61.19,2.06
		c44.83,0.06,89.66,0.02,134.49,0.02c-2.06,0.4-4.12,1.14-6.19,1.14c-59.65,0.06-119.3,0.21-178.95-0.04
		c-18.9-0.08-30.9-8.39-35.33-25.35c-0.93-3.57-3.04-8.8,4.16-9.19C692.75,435.12,692.76,435.51,692.76,435.91z"/>
	<path class="st12" d="M692.76,435.91c0-0.4,0-0.8,0-1.19c0.01-1.59,0.02-3.18,0.04-4.78c5.9,5.98,5.8,13.87,11.3,20.31
		c5.56,6.51,13.71,7.47,19.75,13.12c-1.19,0.01-2.39,0.02-3.58,0.04C703.68,461.64,695.88,451.12,692.76,435.91z"/>
	<path class="st2" d="M701.14,483.68c-0.8-0.01-1.59-0.01-2.39-0.02c-3.53-7-12.68-8.93-17.27-15.24c-2.85-3.93-2.5-12.27-8.94-12.2
		c0-0.41,0.01-0.82,0.01-1.22c8.31-1.55,7.99,9.42,11.78,14.25C687.91,473.83,701.66,477.11,701.14,483.68z"/>
	<path class="st2" d="M713.06,486.11c-2.67-4.8-7.22-1.32-10.73-2.42c4.95-2.21,10.6-7.18,14.2-0.74c1.89,3.39,1.58,7.03-3.41,6.72
		C713.1,488.48,713.08,487.29,713.06,486.11z"/>
	<path class="st2" d="M672.53,456.22c6.44-0.07,6.09,8.28,8.94,12.2c4.59,6.31,13.74,8.24,17.27,15.24
		c-0.41,0.02-0.82,0.04-1.23,0.06c-13.1-1.96-20.15-10.3-23.6-22.42C673.43,459.62,672.99,457.92,672.53,456.22z"/>
	<path class="st0" d="M1008.17,573.26c0.34-0.82,0.68-1.63,1.03-2.45c7.27-2.11,10.89-7.87,9.76-15.53c2.45-2.63,4.65-5.55,7.4-7.81
		c4.47-3.67,9.29-6.91,13.96-10.33c1.49,0.19,2.98,0.37,4.47,0.56c-0.4-9.2-8.64-17.72-13.63-25.27
		c0.03-23.32,12.65-48.48,39.62-48.35c10.13,0.05,23.66,6.74,28.57,16.07c6.21,11.79-6.73,20.01-15.84,10.41
		c-0.72-7.06-3.83-8.51-12.05-5.62c-1.97,0.32-3.95,0.64-5.92,0.96c-4.69-6.11-7.51,0.92-10.99,1.89c-3.8,1.07-2.97,4.92-2.02,8.06
		c-7.66,6.62-1.2,23.16,5.36,28.34c9.63,7.61,28.43,3.8,39.96,3.89c0.52,1.49,10.16,9.16,11.81,9.39
		c-2.39,3.54-4.78,7.08-7.17,10.61c-6.15,0.03-12.3,0.04-18.45,0.11c-5.36,0.06-10.72,0.2-16.08,0.3c-2.4,0.64-4.8,1.28-7.2,1.92
		c-10.02-7.54-42.24,23.11-34.3,30.12c-2.3,5.24-6.89,9.73-5.15,16.3c0.2,0.77-0.61,1.8-0.95,2.72c-0.13,4.8-0.26,9.61-0.39,14.41
		c-5.97,6.42,4.88,32.97,13.5,32.13c1.6,1.47,3.37,2.8,4.78,4.45c7.85,9.17,18.86,12.24,29.72,15.63
		c14.53,2.34,25.26-4.31,37.75-10.22c9.15-4.33,25.12-3.11,17.35,11.75c-5.41,10.34-25.35,17.09-35.93,19.07
		c-15.13,2.83-27.78,0.32-40.68-7.33c-2.42-6.95-13.39-12.06-20.38-11.67c-12.31-13.25-22.29-28.22-24.24-46.31
		c-0.69-6.43-5.27-13.81,0.06-20.88c1.38-1.82,0.38-5.44,0.47-8.23c1.83-2.64,5.36-5.46,5.11-7.89
		C1007.11,580.55,1014.15,577.14,1008.17,573.26z"/>
	<path class="st8" d="M960.44,720.21c-5.16-2.14-10.59-3.79-15.42-6.51c-9.79-5.51-13.27-14.68-13.27-25.5
		c0.01-88.24,0.02-176.48-0.05-264.72c0-3.52-0.77-7.04-1.19-10.56c1.22-0.62,2.43-1.25,3.65-1.87c0.4,1.92,0.79,3.84,1.19,5.75
		c-0.4,2.06-1.14,4.12-1.14,6.18c-0.06,87.06-0.06,174.12,0,261.18c0,2.06,0.75,4.12,1.15,6.18c3.25,5.47,6.14,11.21,9.92,16.28
		c1.78,2.4,5.28,3.52,8,5.22c3.35,1.19,6.69,3.42,10.04,3.43c83.48,0.19,166.97,0.15,250.46,0.15c1.19,1.08,2.38,2.17,3.58,3.25
		c-0.39,0.5-0.78,1.01-1.17,1.52C1130.92,720.21,1045.68,720.21,960.44,720.21z"/>
	<path class="st8" d="M935.34,690.35c-0.4-2.06-1.14-4.12-1.15-6.18c-0.06-87.06-0.06-174.12,0-261.18c0-2.06,0.75-4.12,1.14-6.18
		C935.34,507.98,935.34,599.17,935.34,690.35z"/>
	<path class="st8" d="M1213.76,715.44c-83.49,0-166.97,0.04-250.46-0.15c-3.35-0.01-6.69-2.24-10.04-3.43
		c5.42,0.8,10.83,2.28,16.25,2.29c78.95,0.15,157.91,0.09,236.86,0.15C1208.84,714.29,1211.3,715.04,1213.76,715.44z"/>
	<path class="st8" d="M1067.98,666.18c-10.86-3.39-21.88-6.47-29.72-15.63c-1.41-1.64-3.18-2.97-4.78-4.45
		c-1.74-3.14-3.49-6.27-5.23-9.41c6.24,4.89,12.35,11.56,19.01,15.75C1055.45,657.6,1062.53,657.45,1067.98,666.18z"/>
	<path class="st0" d="M1026.47,580.54c-7.94-7.01,24.28-37.67,34.3-30.12c-2.77,1.29-5.55,2.58-8.32,3.87
		c-4.36,3.16-8.72,6.32-13.08,9.48c-3.28,4.34-6.56,8.67-9.83,13.01C1028.52,578.03,1027.49,579.29,1026.47,580.54z"/>
	<path class="st0" d="M1028.25,636.68c1.74,3.14,3.49,6.27,5.23,9.41c-8.62,0.84-19.47-25.7-13.5-32.13c0,0,0.39-0.14,0.39-0.14
		c1.19,5.2,2.39,10.4,3.58,15.6C1025.39,631.85,1026.82,634.27,1028.25,636.68z"/>
	<path class="st8" d="M1026.47,580.54c1.02-1.26,2.05-2.51,3.07-3.77c4.37,4.46-2.92,21.47-9.16,22.78
		c0.34-0.91,1.15-1.95,0.95-2.72C1019.58,590.28,1024.17,585.78,1026.47,580.54z"/>
	<path class="st0" d="M1031.17,512.43c4.99,7.55,13.22,16.07,13.63,25.27c-1.49-0.19-2.98-0.37-4.47-0.56
		c-0.45-1.64-0.49-3.6-1.43-4.88C1034.5,526.32,1031.34,519.98,1031.17,512.43z"/>
	<path class="st0" d="M1026.1,667.78c6.98-0.39,17.96,4.73,20.38,11.67C1039.68,675.56,1032.89,671.67,1026.1,667.78z"/>
	<path class="st0" d="M1008.17,573.26c5.98,3.88-1.07,7.29-0.67,11.21c0.25,2.43-3.28,5.25-5.11,7.89
		C1004.32,586,1006.25,579.63,1008.17,573.26z"/>
	<path class="st0" d="M1052.53,495.86c-0.95-3.14-1.78-6.99,2.02-8.06c3.48-0.98,6.31-8.01,10.99-1.89
		C1061.21,489.22,1056.87,492.54,1052.53,495.86z"/>
	<path class="st0" d="M1018.96,555.28c1.13,7.66-2.49,13.42-9.76,15.53C1012.45,565.64,1015.7,560.46,1018.96,555.28z"/>
	<path class="st0" d="M1109.66,537.48c-1.65-0.23-11.29-7.9-11.81-9.39C1105.69,527.89,1108.66,530.25,1109.66,537.48z"/>
	<path class="st8" d="M1023.96,629.43c-1.19-5.2-2.39-10.4-3.58-15.6c2.49,4.32,5.03,8.61,7.3,13.05
		C1027.77,627.05,1025.26,628.55,1023.96,629.43z"/>
	<path class="st14" d="M936.51,410.71c1.88-0.36,3.76-1.03,5.64-1.04c12.87-0.06,25.74,0.02,38.62,0.05
		c-0.01,0.32-0.01,0.64-0.01,0.97C966.01,410.69,951.26,410.7,936.51,410.71z"/>
	<path class="st8" d="M1039.37,563.77c4.36-3.16,8.72-6.32,13.08-9.48C1050.77,561.71,1045.54,565.5,1039.37,563.77z"/>
	<path class="st15" d="M1067.97,548.5c5.36-0.1,10.72-0.24,16.08-0.3c6.15-0.07,12.3-0.08,18.45-0.11
		c-1.61,0.43-3.22,1.26-4.82,1.23C1087.77,549.16,1077.87,548.8,1067.97,548.5z"/>
	<path class="st0" d="M1071.47,484.94c8.22-2.89,11.33-1.44,12.05,5.62C1079.5,488.69,1075.48,486.81,1071.47,484.94z"/>
	<path class="st1" d="M878.21,395.3c-0.2-0.35-0.29-0.74-0.25-1.14c3.05-6.42-1.71-11.35-3.41-16.82c-0.22-0.7-2.39-0.8-3.66-1.18
		c-27.45,0.01-54.89-0.01-82.34,0.08c-2.03,0.01-4.05,0.75-6.07,1.16c-0.04,0.39-0.07,0.78-0.11,1.18c-1.51,4-3.02,8.01-4.53,12.01
		c-0.2,0.34-0.28,0.71-0.24,1.1c-2.79,7.43-5.33,14.97-8.51,22.23c-1.14,2.59-3.83,4.5-5.82,6.72c-6.11,2.75-10.37,0.58-13.34-5.02
		c0.74-4.22,0.98-8.62,2.32-12.64c4.59-13.79,9.56-27.46,14.38-41.17c0.08-0.77,0.16-1.54,0.24-2.31
		c1.92-5.98,3.84-11.96,5.76-17.94c1.25-2.89,2.51-5.78,3.76-8.67c1.28-3.08,2.57-6.17,3.85-9.25c5.18-0.78,7.97-7.85,5.69-14.4
		c0.03-0.77,0.06-1.54,0.09-2.31c0.27-0.44,0.55-0.89,0.83-1.33c1.76-5.53,3.52-11.07,5.28-16.6c5.77-1.44,8.99-9.17,6.97-16.75
		c0.08-0.79,0.17-1.57,0.25-2.36c5.52-1.17,9.66-9.49,5.68-14.36c0.06-0.77,0.13-1.55,0.19-2.32c0.25-0.45,0.49-0.91,0.74-1.36
		c1.77-5.53,3.53-11.07,5.29-16.6c5.93,0.15,4.36-5.19,7.51-7.88c3.6-3.08,6.76-4.6,11.5-6.49c1.17,0.45,2.33,0.91,3.5,1.36
		c1.49,7.13,3.92,13.79,9.4,18.95c9.58,30.28,21.76,59.69,32.43,89.6c0.7,8.74,1.01,20.55,9.31,25.12c0.41,1.6,0.83,3.19,1.24,4.79
		c-3.39,3.6-0.51,11.66,5.11,14.33c1.15,3.18,2.3,6.35,3.45,9.53c0.53,6.6,2.9,12.27,3.8,18.63c1.02,7.22-1.46,11.57-3.8,18.23
		c-6.43,1.91-6.31-4.88-9.56-7.19C885.4,405.21,884.22,401.75,878.21,395.3z M806.31,309.35c0.05,0.39,0.08,0.79,0.09,1.19
		c0,0-0.05,0.07-0.05,0.07c-1.17,1.17-3,2.15-3.4,3.55c-2.19,7.48-4.02,15.06-5.98,22.61c-2.06,5.96-4.11,11.91-6.17,17.87
		c12.21,2.75,26.06,1.24,38.56,1.24c9.46,0,25.39,3.42,33.24-2.45c-1.24-3.98-2.47-7.95-3.71-11.93c2.42-8.89-3.89-15.94-5.25-24.05
		c-0.09-0.56-2.7-0.7-4.14-1.04c-1.21-4.36-2.42-8.72-3.63-13.08c-2.05-4.77-4.09-9.53-6.14-14.3c0.01-0.43,0.02-0.86,0.03-1.29
		c0.65-9.35-1.09-20.82-9.35-26.31l-0.43,0.2c0.06-0.42,0.13-0.85,0.19-1.27c1.89-9.29-6.72-17.22-4.74-4.79
		c-1.24,3.31-1.94,6.99-3.84,9.87c-3.57,5.41-4.04,11.65-5.8,17.55c-0.71,1.6-1.42,3.2-2.14,4.8c-0.55,1.99-1.09,3.98-1.64,5.97
		c-1.42,0.44-3.96,0.69-4.08,1.36C807.11,299.81,806.79,304.59,806.31,309.35z"/>
	<path class="st12" d="M875.61,330.76c-10.68-29.91-22.85-59.31-32.43-89.6c-1.1-4.37-2.19-8.74-3.29-13.11
		c10.64,3.3,8.92,19.97,11.53,27.55c1.42,4.14,13.3,23.05,10.22,26.74c2.17,4.86,4.51,9.66,6.37,14.65
		c1.95,5.23,0.75,10.46,2.29,14.91c0.75,2.15,4.91,6.7,6.3,9.62c3.02,6.34,3.79,9.5,2.57,16.46
		C877.98,335.58,876.8,333.17,875.61,330.76z"/>
	<path class="st12" d="M833.77,222.22c-1.17-0.45-2.33-0.91-3.5-1.36c-6.57-2.37-12.61,0.17-15.85,6.79
		c-1.2,2.45-2.12,5.05-3.17,7.57c-1.76,5.53-3.53,11.07-5.29,16.6c-6.91-4.49,3.39-26.52,9.03-30.81c9.25-7.02,23.8-7.73,24.47,5.93
		C837.57,225.37,835.67,223.8,833.77,222.22z"/>
	<path class="st12" d="M766.64,361.8c-4.82,13.71-9.8,27.38-14.38,41.17c-1.34,4.03-1.58,8.42-2.32,12.64
		c-10.59-0.18-0.07-20.92,1.6-25.34C755.27,380.42,757.12,367.22,766.64,361.8z"/>
	<path class="st12" d="M763.28,420.63c1.98-2.22,4.68-4.12,5.82-6.72c3.18-7.26,5.72-14.8,8.51-22.23
		c3.56,5.79-1.01,17.26-3.57,22.95C772.7,417.59,765.52,429.44,763.28,420.63z"/>
	<path class="st1" d="M894.72,421.39c2.34-6.66,4.82-11.01,3.8-18.23c-0.9-6.36-3.26-12.03-3.8-18.63
		c2.7,7.13,6.31,14.06,7.85,21.43C904.16,413.58,904.73,418.7,894.72,421.39z"/>
	<path class="st12" d="M792.14,288.98c-1.76,5.54-3.52,11.07-5.28,16.6c-8.13-5.22,3.34-22.47,8.54-26.26c0,0,0.16,0.11,0.16,0.11
		C794.41,282.62,793.28,285.8,792.14,288.98z"/>
	<path class="st16" d="M782.48,377.4c2.02-0.4,4.05-1.15,6.07-1.16c27.45-0.09,54.89-0.07,82.34-0.08c0.1,0.36,0.18,0.71,0.26,1.07
		C841.59,377.29,812.03,377.34,782.48,377.4z"/>
	<path class="st12" d="M780.25,323.63c-1.28,3.09-2.56,6.17-3.85,9.25c-4.8-4.13-1.03-8.83,0.69-11.74
		c2.81-4.77,0.29-13.22,8.94-14.22c-0.03,0.77-0.06,1.54-0.09,2.31C784.04,314.03,782.14,318.83,780.25,323.63z"/>
	<path class="st12" d="M799.36,269.87c-0.08,0.79-0.17,1.57-0.25,2.36c-1.19,2.4-2.37,4.8-3.56,7.21c0,0-0.16-0.11-0.16-0.11
		c-3.35-4.3,2.68-26.49,9.83-26.14c-0.06,0.77-0.13,1.55-0.19,2.32C803.14,260.3,801.25,265.09,799.36,269.87z"/>
	<path class="st1" d="M875.61,330.76c1.19,2.41,2.38,4.82,3.56,7.23c1.92,5.96,3.83,11.93,5.75,17.89
		C876.62,351.31,876.3,339.5,875.61,330.76z"/>
	<path class="st12" d="M772.64,341.55c-1.92,5.98-3.84,11.96-5.76,17.94c-2.6-2.23-3.35-4.73-1.26-7.74
		C767.98,348.36,770.3,344.95,772.64,341.55z"/>
	<path class="st1" d="M833.77,222.22c1.9,1.58,3.8,3.15,5.69,4.73c0.06,0.4,0.2,0.77,0.42,1.11c1.1,4.37,2.19,8.74,3.29,13.11
		C837.7,236.01,835.26,229.35,833.77,222.22z"/>
	<path class="st1" d="M878.21,395.3c6.01,6.44,7.19,9.9,6.96,18.9C882.84,407.9,880.53,401.6,878.21,395.3z"/>
	<path class="st1" d="M871.14,377.24c-0.07-0.36-0.16-0.72-0.26-1.07c1.27,0.38,3.44,0.47,3.66,1.18c1.7,5.47,6.45,10.4,3.41,16.82
		C875.68,388.52,873.41,382.88,871.14,377.24z"/>
	<path class="st12" d="M777.84,390.58c1.51-4,3.02-8.01,4.53-12.01c5.39,2.72,0.77,6.5,0.71,9.69
		C783.06,389.07,779.68,389.81,777.84,390.58z"/>
	<path class="st1" d="M891.27,374.99c-5.62-2.67-8.5-10.73-5.11-14.33C887.86,365.44,889.57,370.22,891.27,374.99z"/>
	<path class="st1" d="M925.78,420.38c10.73,4,4.78,42.36,4.78,53.31c0,25.3,0.01,50.59,0,75.88c-0.01,47.85,4.31,98.19-2.39,145.55
		c-0.4,0-0.8,0-1.19,0c0.4-88.92,0.82-177.84,1.09-266.77C928.08,425.71,926.58,423.04,925.78,420.38z"/>
	<path class="st12" d="M813.65,287.79c0.71-1.6,1.42-3.2,2.14-4.8c7.03-2.31,9.7-15.11,14.19-21.36c0,0,0.43-0.2,0.43-0.2
		c-0.07,0.41-0.14,0.82-0.2,1.22c0.41,3.83,1.2,7.68,1.12,11.5c-0.07,3.64,1.6,4.35,4.58,4.08c1.28,3.17,2.57,6.34,3.85,9.51
		c-0.01,0.43-0.02,0.86-0.03,1.29c0.4,3.96,1.05,7.91,1.15,11.88c0.11,4.46,2.35,3.65,4.99,2.43c1.21,4.36,2.42,8.72,3.63,13.08
		c2.23,7.59,4.4,15.2,6.78,22.75c0.3,0.96,1.71,1.57,2.6,2.34c1.24,3.98,2.47,7.95,3.71,11.93c-1.86,0.42-3.71,1.19-5.57,1.2
		c-22.08,0.07-44.16,0.02-66.23,0.01c2.06-5.96,4.11-11.91,6.17-17.87c6.36,0.67,10.98-21.56,9.38-26.16c0,0,0.05-0.07,0.05-0.07
		C813.96,310.82,817.43,292.65,813.65,287.79z"/>
	<path class="st12" d="M829.98,261.63c-4.49,6.25-7.16,19.05-14.19,21.36c1.76-5.9,2.23-12.14,5.8-17.55
		c1.9-2.88,2.6-6.55,3.84-9.87c1.58,1.6,3.16,3.19,4.74,4.79C830.11,260.78,830.04,261.21,829.98,261.63z"/>
	<path class="st1" d="M858.88,341.5c-0.89-0.77-2.3-1.38-2.6-2.34c-2.38-7.55-4.55-15.16-6.78-22.75c1.44,0.34,4.04,0.48,4.14,1.04
		C855,325.56,861.3,332.61,858.88,341.5z"/>
	<path class="st1" d="M839.76,287.74c-1.28-3.17-2.57-6.34-3.85-9.51c-1.9-5.19-3.81-10.38-5.71-15.58c0.07-0.41,0.14-0.82,0.2-1.22
		C838.67,266.93,840.42,278.39,839.76,287.74z"/>
	<path class="st12" d="M806.35,310.6c1.59,4.61-3.03,26.84-9.38,26.16c1.96-7.55,3.79-15.13,5.98-22.61
		C803.35,312.76,805.18,311.78,806.35,310.6z"/>
	<path class="st17" d="M790.79,354.64c22.08,0.02,44.16,0.06,66.23-0.01c1.86-0.01,3.71-0.78,5.57-1.2
		c-7.85,5.87-23.79,2.45-33.24,2.45C816.85,355.88,803,357.39,790.79,354.64z"/>
	<path class="st12" d="M813.65,287.79c3.78,4.86,0.31,23.02-7.25,22.74c-0.01-0.4-0.04-0.79-0.09-1.19c1.9-5.2,3.8-10.39,5.7-15.58
		C812.56,291.77,813.11,289.78,813.65,287.79z"/>
	<path class="st1" d="M811.26,235.23c1.05-2.53,1.97-5.12,3.17-7.57c3.24-6.62,9.28-9.16,15.85-6.79c-4.75,1.89-7.91,3.41-11.5,6.49
		C815.62,230.04,817.19,235.38,811.26,235.23z"/>
	<path class="st1" d="M830.17,260.36c-1.58-1.6-3.16-3.19-4.74-4.79C823.45,243.14,832.07,251.07,830.17,260.36z"/>
	<path class="st12" d="M845.87,303.33c-2.64,1.22-4.88,2.04-4.99-2.43c-0.1-3.97-0.74-7.92-1.15-11.88
		C841.78,293.8,843.82,298.57,845.87,303.33z"/>
	<path class="st1" d="M795.55,279.44c1.19-2.4,2.37-4.8,3.56-7.21c2.02,7.58-1.2,15.31-6.97,16.75
		C793.28,285.8,794.41,282.62,795.55,279.44z"/>
	<path class="st1" d="M799.36,269.87c1.89-4.79,3.78-9.57,5.68-14.36C809.02,260.38,804.88,268.7,799.36,269.87z"/>
	<path class="st1" d="M780.25,323.63c1.9-4.8,3.79-9.6,5.69-14.4C788.22,315.78,785.43,322.84,780.25,323.63z"/>
	<path class="st1" d="M812.01,293.76c-1.9,5.19-3.8,10.39-5.7,15.58c0.48-4.75,0.8-9.53,1.62-14.22
		C808.05,294.45,810.59,294.2,812.01,293.76z"/>
	<path class="st12" d="M830.21,262.66c1.9,5.19,3.81,10.38,5.71,15.58c-2.98,0.28-4.66-0.43-4.58-4.08
		C831.41,270.33,830.62,266.49,830.21,262.66z"/>
</g>
</svg>
