<?xml version="1.0" encoding="utf-8"?>
<!-- Generator: Adobe Illustrator 27.1.0, SVG Export Plug-In . SVG Version: 6.00 Build 0)  -->
<svg version="1.1" id="Layer_1" xmlns="http://www.w3.org/2000/svg" xmlns:xlink="http://www.w3.org/1999/xlink" x="0px" y="0px"
	 viewBox="0 0 520 520" style="enable-background:new 0 0 520 520;" xml:space="preserve">
<style type="text/css">
	.st0{fill:#EAECEA;}
	.st1{fill:#5A94CF;}
	.st2{fill:#56A0D7;}
	.st3{fill:#D8DBD9;}
	.st4{fill:#262426;}
	.st5{fill:#242726;}
	.st6{fill:#262526;}
	.st7{fill:#625D5E;}
	.st8{fill:#5B5531;}
	.st9{fill:#ADC4E6;}
	.st10{fill:#EBF1F9;}
	.st11{fill:#A59779;}
	.st12{fill:#50494B;}
	.st13{fill:#969292;}
	.st14{fill:#8D7E5D;}
	.st15{fill:#CFE4F0;}
	.st16{fill:#93C6EB;}
	.st17{fill:#CBE4EB;}
	.st18{fill:#2683C0;}
	.st19{fill:#B1D6F2;}
	.st20{fill:#146C7F;}
	.st21{fill:#A8ACA9;}
	.st22{fill:#167592;}
	.st23{fill:#949594;}
	.st24{fill:#686768;}
	.st25{fill:#8FCCEF;}
</style>
<g>
	<path class="st0" d="M48.29,7.44c0.88-1.58,3.15-0.34,4.01-1.96c72.53,0,145.05,0,217.58,0c2.94,2.16,6.69,2.5,9.71,4.74
		c6.62,4.91,10.21,11.26,10.22,19.41c0.05,58.11,0.02,116.22,0.01,174.33c0,0,0.04,0.26,0.04,0.26c-10.76-0.04-21.52-0.1-32.28-0.1
		c-1.61,0-3.35-0.43-4.73,0.9c-1.44,0-2.79,0.25-3.91,1.26c-9.24,2.41-16.59,11.77-17.12,21.8c-1.97,5.9-0.32,11.97-0.89,17.94
		c-51.71,0-103.43,0-155.14,0c-16.08,0-26.49-10.37-26.49-26.38c0-68.67,0.01-137.35-0.04-206.02C49.26,11.55,50.1,9.26,48.29,7.44z
		 M198.22,179.04c3.26,8.45,6.7,16.83,9.71,25.36c2.06,5.84,5.3,8.16,9.86,7.96c6.93-0.31,8.61-5.64,6.55-11.35
		c-5.73-15.95-11.72-31.82-17.73-47.67c-4.75-12.53-9.77-24.97-14.53-37.5C185.32,98.05,178.7,80.21,172,62.41
		c-1.9-5.06-6.13-6.75-11.01-7.01c-4.91-0.26-8.07,2.61-10.16,6.73c-1.34,2.66-2.55,5.39-3.6,8.18
		c-8.37,22.25-16.65,44.53-25.04,66.77c-7.93,21.01-15.99,41.97-23.95,62.97c-2.16,5.71-0.43,10.63,4.27,12.67
		c3.73,1.61,9.21-1.49,11.17-6.52c3.52-9.02,6.93-18.08,10.38-27.12C148.78,179.07,173.5,179.05,198.22,179.04z"/>
	<path class="st1" d="M248.94,206.26c1.11-1.01,2.47-1.26,3.91-1.26c12.33-0.01,24.67-0.02,37-0.03c32.19,0.04,64.38,0.1,96.56,0.1
		c27.04,0,54.09-0.08,81.13-0.12c10.06,1.25,16.14,7.73,20.89,15.94c0.02,2.03,0.04,4.05,0.06,6.08
		c-0.01,71.23-0.01,142.45-0.02,213.68c0.04,1.76,0.02,3.5-1.18,4.96c-68.97,0-137.94-0.01-206.92,0.04c-4,0-7.93-0.35-11.83-1.09
		c-11.43-2.17-19.62-11.43-19.62-22.41C248.91,350.19,248.93,278.23,248.94,206.26z M391.72,311.97c4.7-1.55,6.68-4.99,5.73-9.63
		c-0.92-4.49-4.23-6.45-8.81-6.44c-8.64,0.03-17.3,0.17-25.93-0.12c-9.57-0.32-17.27-11.92-14.12-20.83
		c4.55-12.87,17.41-16.03,28.29-6.94c4.63,3.86,8.83,3.93,12.27,0.19c2.8-3.04,2.03-8.89-1.28-12.55
		c-8.77-9.72-28.08-11.81-39.37-5.44c-12.15,6.86-18.98,20.93-16.77,34.67c1.09,6.76,4.8,12.17,8.88,17.68
		c-1.47,0.87-2.74,1.62-4,2.39c-22.42,13.47-34.38,40.16-29.59,63.91c6.93,34.31,39.55,56.64,71.23,50.79
		c10.59-1.95,20.4-5.67,28.77-12.64c3.7-3.08,3.42-7.12,1.66-10.86c-1.91-4.05-5.91-3.93-9.58-3.11c-1.68,0.37-3.14,1.78-4.68,2.76
		c-13.24,8.44-27.24,10.71-42.07,4.86c-21-8.28-34.06-30.69-28.26-52.92c5.04-19.31,18.85-32.4,40.54-35
		c4.14,0.05,8.28,0.31,12.41,0.1C381.94,312.57,386.94,313.89,391.72,311.97z"/>
	<path class="st2" d="M248.94,206.26c-0.01,71.96-0.04,143.93-0.02,215.89c0,10.99,8.2,20.24,19.62,22.41
		c3.91,0.74,7.83,1.1,11.83,1.09c68.97-0.06,137.94-0.04,206.92-0.04c-1.62,4.31-4,8.01-7.74,10.89
		c-6.86,5.27-14.74,6.36-23.02,6.17c-0.27,0.01-0.67-0.09-0.79,0.05c-0.18,0.22-0.24,0.6-0.24,0.91c0,15.63,0.02,31.26,0.03,46.89
		c-0.74,2.59-2.61,4.29-4.66,5.84c-5.51,1.1-9.44-0.92-13.4-5.01c-14.38-14.84-29.2-29.26-43.85-43.83
		c-0.09-0.32-0.19-0.64-0.28-0.97c-0.66-1.83-2.31-2.78-3.62-4.03c-1.48-1.64-3.43-0.9-5.16-0.9c-41.7-0.05-83.39-0.04-125.09,0
		c-1.56,0-3.35-0.73-4.68,0.81c-4.66,0.07-8.22-3.54-12.78-3.8c-4.74-6.37-10.68-12.15-10.25-21.03c0.05-0.5,0.13-0.99,0.13-1.49
		c0.01-55.47,0.02-110.95,0-166.42c0-1.26,0.47-2.69-0.82-3.7c-0.01-0.7-0.01-1.41-0.02-2.11c0.75-0.44,0.78-1.14,0.67-1.89
		c0.02-11.31,0.05-22.62,0.07-33.93C232.35,218.04,239.7,208.68,248.94,206.26z"/>
	<path class="st3" d="M48.29,7.44c1.82,1.81,0.97,4.11,0.98,6.17c0.05,68.67,0.04,137.35,0.04,206.02
		c0,16.01,10.41,26.38,26.49,26.38c51.71,0,103.43,0,155.14,0c-0.01,5.29-0.02,10.58-0.03,15.87c-31.02,0.03-62.04,0.05-93.06,0.14
		c-1.91,0.01-4-0.69-5.73,0.8c-1.01,1.03-2.01,2.06-3.02,3.08c-0.6,0.59-1.21,1.19-1.81,1.78c-0.91,1.15-1.71,2.41-2.74,3.45
		c-14.24,14.29-28.53,28.53-42.77,42.83c-1.66,1.67-3.43,3.08-5.63,3.94c-4.84-0.16-8.87-1.49-9.99-6.98
		c0.04-14.97,0.09-29.93,0.08-44.9c0-1.01,0.62-2.42-1.05-2.9c-6.96-0.29-14.09,0.62-20.3-3.91c-6.26-4.57-11.59-9.62-11.63-18.12
		c0.02-70.17,0.05-140.34,0.06-210.5c0-1.13,0.3-2.36-0.83-3.21c0.94-2.98,1.89-5.96,2.83-8.94C38.58,13.52,42.86,9.8,48.29,7.44z"
		/>
	<path class="st4" d="M35.33,18.44c-0.94,2.98-1.89,5.96-2.83,8.94c-0.05,1-0.15,1.99-0.15,2.99
		c-0.01,68.67-0.01,137.34,0.01,206.01c0,1.59-0.49,3.36,0.91,4.72c0.04,8.51,5.36,13.55,11.63,18.12
		c6.21,4.53,13.34,3.62,20.3,3.91c0.03,14.2,0.03,28.39,0.1,42.59c0.01,1.76-0.54,3.66,0.86,5.21c1.12,5.49,5.16,6.81,9.99,6.98
		c-1.85,4.42-5.68,4.33-9.44,3.92c-3.33-0.36-5.03-2.65-5.55-5.87c0.04-14.99,0.09-29.98,0.09-44.98c0-1.02,0.54-2.4-1.08-2.88
		c-8.14-0.05-16.18,0.16-23.13-5.62c-5.04-4.2-7.43-9.61-9.48-15.43c1.32-1,0.8-2.42,0.8-3.69c0.01-69.26,0-138.51-0.03-207.77
		c0-1.42,0.63-3.02-0.78-4.2c1.33-3.77,2.34-7.66,4.74-11C33.12,19.23,33.77,18.26,35.33,18.44z"/>
	<path class="st5" d="M450.9,516.36c2.05-1.55,3.92-3.24,4.66-5.84c1.5-1.7,0.92-3.78,0.93-5.7c0.06-14.05,0.05-28.09,0.06-42.14
		c8.27,0.19,16.16-0.9,23.02-6.17c3.74-2.88,6.12-6.58,7.74-10.89c1.2-1.46,1.22-3.21,1.18-4.96c1.68-1.65,0.93-3.77,0.93-5.66
		c0.05-67.63,0.05-135.27,0-202.9c0-1.71,0.81-3.67-0.91-5.12c-0.02-2.03-0.04-4.05-0.06-6.08c3.3,2.58,3.7,6.33,4.06,10.09
		c0,71.24,0.01,142.48,0.01,213.72c0.09,10.86-11.56,21.62-21.93,21.95c-3.35,0.11-6.86-1.04-10.03,1.01c-0.27,0-0.66-0.1-0.77,0.03
		c-0.19,0.22-0.26,0.59-0.26,0.89c0.02,15.32,0.05,30.64,0.08,45.95C457.42,518.63,453.75,515.52,450.9,516.36z"/>
	<path class="st5" d="M389.75,462.52c1.31,1.25,2.96,2.2,3.62,4.03c-42.63,0.01-85.26,0-127.89,0.07c-1.88,0-3.98-0.85-5.66,0.82
		c-6.87-1.03-13.22-3.11-17.78-8.81c4.56,0.26,8.12,3.87,12.78,3.8C299.79,462.46,344.77,462.49,389.75,462.52z"/>
	<path class="st6" d="M129.1,265.9c1.01-1.03,2.01-2.06,3.02-3.08c31.12,0.05,62.24,0.09,93.36,0.2c1.87,0.01,3.97-0.84,5.61,0.86
		c0.01,0.7,0.01,1.41,0.02,2.11c-0.12,0.28-0.19,0.56-0.2,0.87c-1.28,0.06-2.55,0.12-3.83,0.18c-30.79-0.02-61.58-0.03-92.38-0.11
		C132.82,266.93,130.68,267.73,129.1,265.9z"/>
	<path class="st7" d="M27.55,31.39c1.41,1.18,0.78,2.78,0.78,4.2c0.03,69.26,0.04,138.51,0.03,207.77c0,1.27,0.52,2.69-0.8,3.69
		c-0.07-2.82-0.21-5.64-0.21-8.46c-0.01-66.24-0.01-132.49,0-198.73C27.35,37.03,27.48,34.21,27.55,31.39z"/>
	<path class="st8" d="M492.5,444.71c0-71.24-0.01-142.48-0.01-213.72c1.72,1.45,0.9,3.41,0.91,5.12c0.05,68.01,0.05,136.01,0,204.02
		C493.39,441.64,494.22,443.46,492.5,444.71z"/>
	<path class="st9" d="M467.54,204.96c-27.04,0.04-54.09,0.12-81.13,0.12c-32.19,0-64.38-0.06-96.57-0.1c-0.01-0.26-0.01-0.51,0-0.77
		c0,0-0.04-0.26-0.04-0.26c36.55,0.04,73.11,0.1,109.66,0.13c20.77,0.02,41.54-0.01,62.31,0.03
		C463.72,204.13,465.8,203.51,467.54,204.96z"/>
	<path class="st10" d="M230.91,266.86c0.01-0.3,0.08-0.59,0.2-0.87c1.29,1,0.82,2.44,0.82,3.7c0.02,55.47,0.01,110.95,0,166.42
		c0,0.5-0.09,0.99-0.13,1.49c-1.49-1.74-0.81-3.83-0.81-5.75C230.93,376.85,230.92,321.86,230.91,266.86z"/>
	<path class="st11" d="M259.82,467.44c1.67-1.67,3.78-0.82,5.66-0.82c42.63-0.07,85.26-0.06,127.89-0.07
		c0.09,0.32,0.19,0.64,0.28,0.97C349.04,467.49,304.43,467.47,259.82,467.44z"/>
	<path class="st12" d="M129.1,265.9c1.59,1.83,3.72,1.03,5.6,1.03c30.79,0.07,61.58,0.08,92.38,0.11c-0.68,1.43-2.01,0.91-3.07,0.91
		c-31.42,0.03-62.83,0.02-94.25,0.01c-0.82,0-1.65-0.17-2.47-0.27C127.89,267.09,128.49,266.49,129.1,265.9z"/>
	<path class="st13" d="M60.17,268.09c1.62,0.48,1.08,1.86,1.08,2.88c0,14.99-0.05,29.98-0.09,44.98c-1.42-1.55-0.85-3.46-0.86-5.21
		C60.22,296.52,60.21,282.31,60.17,268.09z"/>
	<path class="st14" d="M459.6,514.54c-0.03-15.32-0.06-30.64-0.08-45.95c0-0.31,0.07-0.68,0.26-0.89c0.11-0.13,0.51-0.03,0.77-0.03
		c-0.02,13.91,0,27.83-0.09,41.74C460.45,511.12,461.25,513.07,459.6,514.54z"/>
	<path class="st2" d="M124.06,179.09c-3.45,9.04-6.86,18.1-10.38,27.12c-1.96,5.02-7.45,8.13-11.17,6.52
		c-4.7-2.03-6.43-6.96-4.27-12.67c7.96-21,16.02-41.96,23.95-62.97c8.4-22.24,16.67-44.53,25.04-66.77c1.05-2.79,2.26-5.52,3.6-8.18
		c2.09-4.13,5.25-6.99,10.16-6.73c4.88,0.26,9.11,1.94,11.01,7.01c6.7,17.81,13.32,35.64,20.07,53.43
		c4.76,12.53,9.78,24.96,14.53,37.5c6.01,15.85,11.99,31.72,17.73,47.67c2.05,5.72,0.38,11.04-6.55,11.35
		c-4.56,0.2-7.79-2.12-9.86-7.96c-3.01-8.53-6.46-16.92-9.72-25.36c-1.19-1.31-2.78-0.88-4.22-0.88c-21.92-0.02-43.84-0.03-65.76,0
		C126.81,178.16,125.2,177.67,124.06,179.09z M131.17,161.11c0.37,0.3,0.75,0.87,1.12,0.87c19.2,0.09,38.4,0.14,57.6,0.16
		c1.3,0,2.48-0.31,1.35-2.04c-9.81-25.8-19.61-51.6-29.42-77.4c-3.33,5.87-5.47,11.69-7.71,17.48
		c-6.56,16.89-13.36,33.68-19.57,50.69C133.33,154.19,131.09,157.32,131.17,161.11z"/>
	<path class="st15" d="M124.06,179.09c1.14-1.42,2.75-0.92,4.18-0.92c21.92-0.03,43.84-0.03,65.76,0c1.44,0,3.03-0.43,4.22,0.88
		C173.5,179.05,148.78,179.07,124.06,179.09z"/>
	<path class="st16" d="M289.85,204.21c-0.01,0.26-0.01,0.51,0,0.77c-12.33,0.01-24.67,0.02-37,0.02c1.38-1.32,3.12-0.9,4.73-0.9
		C268.33,204.11,279.09,204.17,289.85,204.21z"/>
	<path class="st17" d="M230.91,261.88c0.01-5.29,0.02-10.58,0.03-15.87c0.57-5.97-1.09-12.04,0.89-17.94
		c-0.02,11.31-0.05,22.62-0.07,33.93C231.47,261.99,231.19,261.95,230.91,261.88z"/>
	<path class="st18" d="M488.49,226.97c1.72,1.45,0.91,3.42,0.91,5.12c0.05,67.63,0.05,135.27,0,202.9c0,1.89,0.75,4.01-0.93,5.66
		C488.48,369.42,488.49,298.2,488.49,226.97z"/>
	<path class="st19" d="M364.65,312.72c6.81-1.82,13.76-0.43,20.63-0.82c2.14-0.12,4.3,0.04,6.44,0.07
		c-4.79,1.93-9.78,0.6-14.67,0.85C372.93,313.03,368.78,312.77,364.65,312.72z"/>
	<path class="st20" d="M389.75,462.52c-44.98-0.03-89.96-0.06-134.93-0.09c1.33-1.54,3.12-0.81,4.68-0.81
		c41.7-0.04,83.39-0.04,125.09,0C386.31,461.63,388.27,460.88,389.75,462.52z"/>
	<path class="st21" d="M230.91,261.88c0.28,0.07,0.56,0.11,0.85,0.12c0.11,0.75,0.08,1.44-0.67,1.89c-1.64-1.71-3.74-0.86-5.61-0.86
		c-31.12-0.11-62.24-0.15-93.36-0.2c1.73-1.5,3.82-0.8,5.73-0.8C168.87,261.93,199.89,261.91,230.91,261.88z"/>
	<path class="st22" d="M456.54,462.68c-0.01,14.05,0,28.09-0.06,42.14c-0.01,1.92,0.57,4-0.93,5.7
		c-0.01-15.63-0.03-31.26-0.03-46.89c0-0.31,0.05-0.69,0.24-0.91C455.87,462.59,456.27,462.68,456.54,462.68z"/>
	<path class="st23" d="M33.27,241.09c-1.4-1.36-0.9-3.12-0.91-4.72c-0.03-68.67-0.02-137.34-0.01-206.01c0-1,0.1-1.99,0.15-2.99
		c1.13,0.85,0.83,2.09,0.83,3.21C33.32,100.75,33.29,170.92,33.27,241.09z"/>
	<path class="st24" d="M66.16,310.92c-1.4-1.55-0.86-3.46-0.86-5.21c-0.07-14.2-0.08-28.39-0.1-42.59c1.66,0.48,1.05,1.89,1.05,2.9
		C66.24,280.99,66.19,295.96,66.16,310.92z"/>
	<path class="st0" d="M131.17,161.11c-0.08-3.79,2.16-6.91,3.38-10.23c6.2-17.01,13.01-33.81,19.57-50.69
		c2.25-5.78,4.39-11.61,7.71-17.48c9.81,25.8,19.61,51.6,29.42,77.4c-1.1,1.41-2.68,1.07-4.12,1.06
		C168.47,161.16,149.82,161.13,131.17,161.11z"/>
	<path class="st25" d="M131.17,161.11c18.65,0.02,37.3,0.05,55.95,0.06c1.44,0,3.02,0.34,4.12-1.06c1.13,1.72-0.06,2.04-1.35,2.04
		c-19.2-0.02-38.4-0.07-57.6-0.16C131.91,161.97,131.54,161.41,131.17,161.11z"/>
</g>
</svg>
