<?xml version="1.0" encoding="iso-8859-1"?>
<!-- Uploaded to: SVG Repo, www.svgrepo.com, Generator: SVG Repo Mixer Tools -->
<svg height="800px" width="800px" version="1.1" id="Layer_1" xmlns="http://www.w3.org/2000/svg" xmlns:xlink="http://www.w3.org/1999/xlink" 
	 viewBox="0 0 512.001 512.001" xml:space="preserve">
<path style="fill:#CEE8FA;" d="M285.792,328.773c0-58.717,47.599-106.316,106.316-106.316c7.124,0,14.081,0.714,20.812,2.05
	c2.964-10.219,4.579-21.012,4.579-32.187c0-63.739-51.671-115.41-115.411-115.41c-45.413,0-84.671,26.248-103.507,64.385
	c-14.531-13.426-33.95-21.64-55.294-21.64c-45.018,0-81.513,36.495-81.513,81.513c0,44.562,35.763,80.748,80.151,81.477
	c-0.456,0.008-0.907,0.034-1.364,0.034c-36.146,0-66.776-23.535-77.454-56.11c-29.278,13.882-49.53,43.7-49.53,78.254l0,0
	c0,47.811,38.759,86.57,86.57,86.57h206.064C293.38,373.827,285.792,352.191,285.792,328.773z"/>
<g>
	<path style="fill:#2D527C;" d="M484.618,252.504c-4.772-5.782-13.328-6.602-19.113-1.83c-5.784,4.774-6.602,13.33-1.83,19.113
		c13.653,16.543,21.172,37.491,21.172,58.985c0,51.137-41.603,92.739-92.739,92.739c-46.339,0-84.85-34.165-91.667-78.628
		c-0.001-0.012-0.003-0.023-0.005-0.035c-0.21-1.374-0.38-2.76-0.53-4.154c-0.038-0.354-0.071-0.709-0.105-1.064
		c-0.105-1.101-0.187-2.208-0.254-3.32c-0.023-0.395-0.052-0.789-0.069-1.184c-0.067-1.443-0.11-2.893-0.11-4.354
		c0-51.137,41.603-92.739,92.739-92.739c6.072,0,12.184,0.603,18.169,1.791c6.905,1.37,13.721-2.77,15.684-9.535
		c3.396-11.709,5.117-23.81,5.117-35.968c0-71.124-57.863-128.987-128.988-128.987c-43.922,0-83.811,21.765-107.537,57.746
		c-15.202-9.755-32.921-15.002-51.266-15.002c-52.431,0-95.088,42.657-95.088,95.089c0,5.803,0.519,11.531,1.533,17.127
		C19.266,236.107,0,269.199,0,304.825c0,55.221,44.926,100.147,100.147,100.147h199.464c22.008,26.669,55.301,43.696,92.498,43.696
		c66.108,0,119.893-53.783,119.893-119.893C512,300.987,502.276,273.9,484.618,252.504z M282.674,377.817H100.147
		c-40.249,0-72.993-32.743-72.993-72.992c0-23.269,11.28-45.057,29.607-58.679c16.327,30.523,48.24,50.111,83.8,50.111
		c0.425,0,0.847-0.012,1.269-0.027l0.333-0.009c7.406-0.129,13.343-6.173,13.339-13.581c-0.004-7.409-5.947-13.447-13.354-13.569
		c-36.833-0.607-66.797-31.068-66.797-67.903c0-37.46,30.475-67.936,67.934-67.936c17.129,0,33.494,6.406,46.081,18.035
		c3.144,2.905,7.479,4.161,11.684,3.378c4.21-0.779,7.805-3.499,9.702-7.338c17.312-35.047,52.307-56.82,91.334-56.82
		c56.151,0,101.834,45.682,101.834,101.833c0,5.704-0.481,11.392-1.434,17.01c-3.458-0.3-6.924-0.452-10.381-0.452
		c-66.108,0-119.893,53.783-119.893,119.893c0,1.048,0.014,2.094,0.041,3.135c0.015,0.576,0.042,1.149,0.065,1.723
		c0.018,0.453,0.03,0.908,0.053,1.36c0.042,0.827,0.099,1.651,0.158,2.474c0.014,0.187,0.023,0.376,0.037,0.563
		c0.075,0.99,0.164,1.977,0.263,2.961c0.001,0.01,0.001,0.02,0.003,0.03C274.128,353.807,277.443,366.192,282.674,377.817z"/>
	<path style="fill:#2D527C;" d="M363.321,386.855c-2.345,0-4.688-0.607-6.788-1.819c-4.201-2.425-6.788-6.907-6.788-11.758v-89.012
		c0-4.851,2.588-9.333,6.788-11.758c4.201-2.425,9.376-2.426,13.577,0l77.085,44.506c4.201,2.425,6.788,6.907,6.788,11.758
		c0,4.851-2.588,9.333-6.788,11.758l-77.085,44.506C368.01,386.249,365.665,386.855,363.321,386.855z M376.898,307.783v41.98
		l36.355-20.99L376.898,307.783z"/>
</g>
</svg>