<svg enable-background="new 0 0 200 200" viewBox="0 0 200 200" xmlns="http://www.w3.org/2000/svg"><path d="m26.71 164.51c-8.77-.88-16.69-7.67-19.21-16.38-.32-1.1-.65-2.28-1.77-2.94 0-.61 0-1.22 0-1.83 1.46-.96.9-2.46.9-3.74.02-33.85.02-67.7-.02-101.55 0-1.42.64-3.08-.88-4.22 0-.91 0-1.83 0-2.74 2.93-9.56 9.04-16.21 18.22-20.08h1.82c1.29 1.6 3.09.86 4.65.87 12.38.1 24.75.11 37.13.15 1.24 6.85 4.01 13.24 6.07 19.84 4.18 13.42 8.49 26.8 12.78 40.18 2.56 7.97 4.79 16.2 7.3 24.2 3.2 10.2 6.35 20.46 9.87 30.58 3.66 10.5 6.41 21.3 10.4 31.71.68 1.77.73 3.77 1.07 5.67-2.58.04-5.16.11-7.74.11-26.86.08-53.73.12-80.59.17zm41.78-68.27c-.02-2.6 1.07-5.74-3.23-6.17-.75-.08-1.78-1.38-2-2.27-2.43-10.29-5.31-20.52-5.54-31.19-.06-2.86.13-5.57-3.72-5.85-2.94-.22-3.67 2.14-4.6 4.14-3.22 6.98-6.29 14.02-9.58 20.96-4.05 8.54-6.91 17.53-10.44 26.26-2.27 5.6-3.16 11.83-5.94 16.95-2.53 4.66 1.29 4.69 2.77 5.67 2.28 1.51 3.98-.04 4.79-2.64 2.27-7.21 4.73-14.36 7-21.57.87-2.77 1.69-4.04 5.34-3.33 4.49.88 8.83 3.05 13.62 2.39 1.87-.26 2.65.62 3.54 2.51 2.87 6.15 5.05 12.65 9.1 18.22 2.65 3.66 3.59 3.57 6.29-.17 1.99-2.74-.07-4.52-1.04-6.46-2.79-5.58-6.85-10.68-6.36-17.45z" fill="#fdc30e"/><path d="m5.74 33.86c1.52 1.14.88 2.79.88 4.22.04 33.85.04 67.7.02 101.55 0 1.28.56 2.78-.9 3.74 0-36.5 0-73 0-109.51z" fill="#fdde83"/><path d="m67.55 12.07c-12.38-.04-24.75-.04-37.13-.15-1.56-.01-3.35.73-4.65-.87h41.91c-.03.34-.08.68-.13 1.02z" fill="#fde391"/><path d="m167.33 27.98c-22.37 0-44.74 0-67.11 0-.01-.26-.01-.52-.02-.78h67.12c.01.26.01.52.01.78z" fill="#e6e5e6"/><path d="m191.18 169.83c0-39.66 0-79.06 0-118.17 1.95 2.74 2.12 113.06 0 118.17z" fill="#e7e6e6"/><path d="m180.84 163.27c0-35.16 0-70.31 0-105.47h.45v105.44c-.15.01-.3.02-.45.03z" fill="#e8e8e9"/><path d="m26.71 164.51c26.86-.05 53.73-.1 80.59-.15 2.58-.01 5.16-.07 7.74-.11-.93 1.44-2.41 1.02-3.71 1.02-27.07.02-54.13.02-81.2.01-1.18-.01-2.45.24-3.42-.77z" fill="#fef9ea"/><path d="m164.97 180.62c-28.12 0-56.23 0-84.35 0 0-.15 0-.3 0-.46h84.4c-.02.16-.04.31-.05.46z" fill="#e8e8e8"/><path d="m84.25 193.77h77.21v.46c-25.7 0-51.4 0-77.1 0-.03-.15-.07-.3-.11-.46z" fill="#dedddf"/><path d="m52.3 90.41c-2-.39-4.2-.71-6.35-1.26-2.04-.52-2.42-2.06-1.69-3.84 1.56-3.81 3.19-7.59 4.88-11.35.31-.69.33-2.09 1.64-1.61.58.21 1.32 1.1 1.3 1.66-.12 4.71 2.4 8.8 3 13.37.36 2.66-.34 3.23-2.78 3.03z" fill="#fdc211"/></svg>