<svg id="Layer_1" data-name="Layer 1" xmlns="http://www.w3.org/2000/svg" xmlns:xlink="http://www.w3.org/1999/xlink" viewBox="0 0 64 64"><defs><style>.cls-1{fill:url(#linear-gradient);}</style><linearGradient id="linear-gradient" x1="12.07" y1="7.11" x2="50.24" y2="54.78" gradientUnits="userSpaceOnUse"><stop offset="0" stop-color="#252829" id="id_259"></stop><stop offset="1" stop-color="#1a5fd6" id="id_260"></stop></linearGradient></defs><title>Octagonal</title><path class="cls-1" d="M39.67,29l3,3c-1,1-2.43,1.91-3.08,3.13a3.3,3.3,0,0,0-.24,1.76c0,.83,0,1.66,0,2.49-1.22,0-3.15-.37-4.25.23S33,41.72,32,42.69c-1-1-1.91-2.43-3.13-3.08a3.3,3.3,0,0,0-1.76-.24c-.83,0-1.66,0-2.49,0,0-1.22.37-3.15-.23-4.25S22.28,33,21.31,32c1-1,2.43-1.91,3.08-3.13a3.3,3.3,0,0,0,.24-1.76c0-.83,0-1.66,0-2.49,1.22,0,3.15.37,4.25-.23S31,22.28,32,21.31c1,1,1.91,2.43,3.13,3.08a3.3,3.3,0,0,0,1.76.24c.83,0,1.66,0,2.49,0,0,.85,0,1.7,0,2.54C39.34,27.72,39.21,28.54,39.67,29Z" id="id_253"></path><path class="cls-1" d="M58.71,31.29,51,23.59V17.66c0-.93,0-1.85,0-2.77a2.21,2.21,0,0,0-.36-1.49c-.46-.51-1.24-.4-1.86-.41H40.41L36,8.56,33.75,6.33c-.44-.45-1-1.29-1.67-1.32s-1.31.8-1.76,1.26L28.07,8.51,23.59,13H17.66c-.93,0-1.85,0-2.77,0a2.21,2.21,0,0,0-1.49.36c-.51.46-.4,1.24-.41,1.86,0,.88,0,1.77,0,2.65v5.72L8.56,28,6.33,30.25c-.45.44-1.29,1-1.32,1.67s.8,1.31,1.26,1.76l2.24,2.25L13,40.41v5.93c0,.93,0,1.85,0,2.77a2.21,2.21,0,0,0,.36,1.49c.46.51,1.24.4,1.86.41h8.37L28,55.44l2.22,2.23c.44.45,1,1.28,1.67,1.32s1.31-.8,1.76-1.26l2.25-2.24L40.41,51h5.93c.93,0,1.85,0,2.77,0a2.21,2.21,0,0,0,1.49-.36c.51-.46.4-1.24.41-1.86,0-.88,0-1.77,0-2.65V40.41l4.81-4.8c.74-.74,1.48-1.49,2.22-2.22C58.58,32.85,59.47,32.05,58.71,31.29Zm-13.9,1.42-3.43,3.43c0,.94,0,1.89,0,2.84,0,.64.2,1.6-.31,2.11s-1.32.34-1.91.31c-1,0-2,0-3,0-.8.8-1.62,1.58-2.37,2.42-.46.52-1.09,1.36-1.87,1.29s-1.31-.91-1.77-1.42c-.72-.79-1.51-1.53-2.27-2.29-.94,0-1.89,0-2.84,0-.64,0-1.6.2-2.11-.31s-.34-1.32-.31-1.91c0-1,0-2,0-3-.8-.8-1.58-1.62-2.42-2.37-.52-.46-1.36-1.09-1.29-1.87s.91-1.31,1.42-1.77c.79-.72,1.53-1.51,2.29-2.27,0-.94,0-1.89,0-2.84,0-.64-.2-1.6.31-2.11s1.32-.34,1.91-.31c1,0,2,0,3,0,.77-.77,1.56-1.52,2.29-2.33.47-.52,1.07-1.37,1.85-1.38s1.38.88,1.84,1.38c.73.81,1.53,1.56,2.3,2.33.94,0,1.89,0,2.84,0,.64,0,1.6-.2,2.11.31s.34,1.32.31,1.91c0,1,0,2,0,3,.9.9,1.8,1.79,2.72,2.67C44.65,31.06,45.56,32,44.81,32.71Z" id="id_254"></path><path class="cls-1" d="M39.67,29l3,3c-1,1-2.43,1.91-3.08,3.13a3.3,3.3,0,0,0-.24,1.76c0,.83,0,1.66,0,2.49-1.22,0-3.15-.37-4.25.23S33,41.72,32,42.69c-1-1-1.91-2.43-3.13-3.08a3.3,3.3,0,0,0-1.76-.24c-.83,0-1.66,0-2.49,0,0-1.22.37-3.15-.23-4.25S22.28,33,21.31,32c1-1,2.43-1.91,3.08-3.13a3.3,3.3,0,0,0,.24-1.76c0-.83,0-1.66,0-2.49,1.22,0,3.15.37,4.25-.23S31,22.28,32,21.31c1,1,1.91,2.43,3.13,3.08a3.3,3.3,0,0,0,1.76.24c.83,0,1.66,0,2.49,0,0,.85,0,1.7,0,2.54C39.34,27.72,39.21,28.54,39.67,29Z" id="id_255"></path><path class="cls-1" d="M49.29,24.71c-.43-.45-.3-1.2-.29-1.76,0-.86,0-1.71,0-2.56V15H43.61c-1.34,0-3.27.39-4.41-.44a29.54,29.54,0,0,1-3.34-3.28L32,7.41,28.12,11.3a33.23,33.23,0,0,1-3.25,3.25c-1.16.87-3.08.49-4.45.46-1.8,0-3.61,0-5.42,0v5.39c0,1.34.39,3.27-.44,4.42a30.31,30.31,0,0,1-3.28,3.33L7.41,32l3.89,3.88a33.23,33.23,0,0,1,3.25,3.25c.87,1.16.49,3.08.46,4.45,0,1.8,0,3.61,0,5.42h5.39c1.34,0,3.27-.39,4.42.44a30.31,30.31,0,0,1,3.33,3.28L32,56.59l3.88-3.89a33.23,33.23,0,0,1,3.25-3.25c1.16-.87,3.08-.49,4.45-.46,1.8,0,3.61,0,5.42,0V43.61c0-1.34-.39-3.27.44-4.42a30.31,30.31,0,0,1,3.28-3.33L56.59,32Zm-4.48,8-3.43,3.43c0,.94,0,1.89,0,2.84,0,.64.2,1.6-.31,2.11s-1.32.34-1.91.31c-1,0-2,0-3,0-.8.8-1.62,1.58-2.37,2.42-.46.52-1.09,1.36-1.87,1.29s-1.31-.91-1.77-1.42c-.72-.79-1.51-1.53-2.27-2.29-.94,0-1.89,0-2.84,0-.64,0-1.6.2-2.11-.31s-.34-1.32-.31-1.91c0-1,0-2,0-3-.8-.8-1.58-1.62-2.42-2.37-.52-.46-1.36-1.09-1.29-1.87s.91-1.31,1.42-1.77c.79-.72,1.53-1.51,2.29-2.27,0-.94,0-1.89,0-2.84,0-.64-.2-1.6.31-2.11s1.32-.34,1.91-.31c1,0,2,0,3,0,.77-.77,1.56-1.52,2.29-2.33.47-.52,1.07-1.37,1.85-1.38s1.38.88,1.84,1.38c.73.81,1.53,1.56,2.3,2.33.94,0,1.89,0,2.84,0,.64,0,1.6-.2,2.11.31s.34,1.32.31,1.91c0,1,0,2,0,3,.9.9,1.8,1.79,2.72,2.67C44.65,31.06,45.56,32,44.81,32.71Z" id="id_256"></path><path class="cls-1" d="M42.69,32c-1,1-2.43,1.91-3.08,3.13a3.3,3.3,0,0,0-.24,1.76c0,.83,0,1.66,0,2.49-1.22,0-3.15-.37-4.25.23S33,41.72,32,42.69c-1-1-1.91-2.43-3.13-3.08a3.3,3.3,0,0,0-1.76-.24c-.83,0-1.66,0-2.49,0,0-1.22.37-3.15-.23-4.25S22.28,33,21.31,32c1-1,2.43-1.91,3.08-3.13a3.3,3.3,0,0,0,.24-1.76c0-.83,0-1.66,0-2.49,1.22,0,3.15.37,4.25-.23S31,22.28,32,21.31c1,1,1.91,2.43,3.13,3.08a3.3,3.3,0,0,0,1.76.24c.83,0,1.66,0,2.49,0,0,1.22-.37,3.15.23,4.25S41.72,31,42.69,32Z" id="id_257"></path><path class="cls-1" d="M42.69,32c-1,1-2.43,1.91-3.08,3.13a3.3,3.3,0,0,0-.24,1.76c0,.83,0,1.66,0,2.49-1.22,0-3.15-.37-4.25.23S33,41.72,32,42.69c-1-1-1.91-2.43-3.13-3.08a3.3,3.3,0,0,0-1.76-.24c-.83,0-1.66,0-2.49,0,0-1.22.37-3.15-.23-4.25S22.28,33,21.31,32c1-1,2.43-1.91,3.08-3.13a3.3,3.3,0,0,0,.24-1.76c0-.83,0-1.66,0-2.49,1.22,0,3.15.37,4.25-.23S31,22.28,32,21.31c1,1,1.91,2.43,3.13,3.08a3.3,3.3,0,0,0,1.76.24c.83,0,1.66,0,2.49,0,0,1.22-.37,3.15.23,4.25S41.72,31,42.69,32Z" id="id_258"></path></svg>