<svg viewBox="0 0 64 64" xmlns="http://www.w3.org/2000/svg" xmlns:xlink="http://www.w3.org/1999/xlink"><linearGradient id="a" gradientUnits="userSpaceOnUse" x1="12.07" x2="50.24" y1="7.11" y2="54.78"><stop offset="0" stop-color="#252829"/><stop offset="1" stop-color="#1a5fd6"/></linearGradient><g fill="url(#a)"><path d="m39.67 29 3 3c-1 1-2.43 1.91-3.08 3.13a3.3 3.3 0 0 0 -.24 1.76v2.49c-1.22 0-3.15-.37-4.25.23s-2.1 2.11-3.1 3.08c-1-1-1.91-2.43-3.13-3.08a3.3 3.3 0 0 0 -1.76-.24c-.83 0-1.66 0-2.49 0 0-1.22.37-3.15-.23-4.25s-2.11-2.12-3.08-3.12c1-1 2.43-1.91 3.08-3.13a3.3 3.3 0 0 0 .24-1.76c0-.83 0-1.66 0-2.49 1.22 0 3.15.37 4.25-.23s2.12-2.11 3.12-3.08c1 1 1.91 2.43 3.13 3.08a3.3 3.3 0 0 0 1.76.24h2.49v2.54c-.04.55-.17 1.37.29 1.83z"/><path d="m58.71 31.29-7.71-7.7v-5.93c0-.93 0-1.85 0-2.77a2.21 2.21 0 0 0 -.36-1.49c-.46-.51-1.24-.4-1.86-.41h-8.37l-4.41-4.43-2.25-2.23c-.44-.45-1-1.29-1.67-1.32s-1.31.8-1.76 1.26l-2.25 2.24-4.48 4.49h-5.93c-.93 0-1.85 0-2.77 0a2.21 2.21 0 0 0 -1.49.36c-.51.46-.4 1.24-.41 1.86v2.65 5.72l-4.43 4.41-2.23 2.25c-.45.44-1.29 1-1.32 1.67s.8 1.31 1.26 1.76l2.24 2.25 4.49 4.48v5.93 2.77a2.21 2.21 0 0 0 .36 1.49c.46.51 1.24.4 1.86.41h8.37l4.41 4.43 2.22 2.23c.44.45 1 1.28 1.67 1.32s1.31-.8 1.76-1.26l2.25-2.24 4.51-4.49h5.93 2.77a2.21 2.21 0 0 0 1.49-.36c.51-.46.4-1.24.41-1.86 0-.88 0-1.77 0-2.65v-5.72l4.81-4.8c.74-.74 1.48-1.49 2.22-2.22.54-.54 1.43-1.34.67-2.1zm-13.9 1.42-3.43 3.43v2.84c0 .64.2 1.6-.31 2.11s-1.32.34-1.91.31c-1 0-2 0-3 0-.8.8-1.62 1.58-2.37 2.42-.46.52-1.09 1.36-1.87 1.29s-1.31-.91-1.77-1.42c-.72-.79-1.51-1.53-2.27-2.29-.94 0-1.89 0-2.84 0-.64 0-1.6.2-2.11-.31s-.34-1.32-.31-1.91c0-1 0-2 0-3-.8-.8-1.58-1.62-2.42-2.37-.52-.46-1.36-1.09-1.29-1.87s.91-1.31 1.42-1.77c.79-.72 1.53-1.51 2.29-2.27 0-.94 0-1.89 0-2.84 0-.64-.2-1.6.31-2.11s1.32-.34 1.91-.31h3c.77-.77 1.56-1.52 2.29-2.33.47-.52 1.07-1.37 1.85-1.38s1.38.88 1.84 1.38c.73.81 1.53 1.56 2.3 2.33h2.84c.64 0 1.6-.2 2.11.31s.34 1.32.31 1.91v3c.9.9 1.8 1.79 2.72 2.67.55.53 1.46 1.47.71 2.18z"/><path d="m39.67 29 3 3c-1 1-2.43 1.91-3.08 3.13a3.3 3.3 0 0 0 -.24 1.76v2.49c-1.22 0-3.15-.37-4.25.23s-2.1 2.11-3.1 3.08c-1-1-1.91-2.43-3.13-3.08a3.3 3.3 0 0 0 -1.76-.24c-.83 0-1.66 0-2.49 0 0-1.22.37-3.15-.23-4.25s-2.11-2.12-3.08-3.12c1-1 2.43-1.91 3.08-3.13a3.3 3.3 0 0 0 .24-1.76c0-.83 0-1.66 0-2.49 1.22 0 3.15.37 4.25-.23s2.12-2.11 3.12-3.08c1 1 1.91 2.43 3.13 3.08a3.3 3.3 0 0 0 1.76.24h2.49v2.54c-.04.55-.17 1.37.29 1.83z"/><path d="m49.29 24.71c-.43-.45-.3-1.2-.29-1.76 0-.86 0-1.71 0-2.56v-5.39h-5.39c-1.34 0-3.27.39-4.41-.44a29.54 29.54 0 0 1 -3.34-3.28l-3.86-3.87-3.88 3.89a33.23 33.23 0 0 1 -3.25 3.25c-1.16.87-3.08.49-4.45.46-1.8 0-3.61 0-5.42 0v5.39c0 1.34.39 3.27-.44 4.42a30.31 30.31 0 0 1 -3.28 3.33l-3.87 3.85 3.89 3.88a33.23 33.23 0 0 1 3.25 3.25c.87 1.16.49 3.08.46 4.45v5.42h5.39c1.34 0 3.27-.39 4.42.44a30.31 30.31 0 0 1 3.33 3.28l3.85 3.87 3.88-3.89a33.23 33.23 0 0 1 3.25-3.25c1.16-.87 3.08-.49 4.45-.46h5.42v-5.38c0-1.34-.39-3.27.44-4.42a30.31 30.31 0 0 1 3.28-3.33l3.87-3.86zm-4.48 8-3.43 3.43v2.84c0 .64.2 1.6-.31 2.11s-1.32.34-1.91.31c-1 0-2 0-3 0-.8.8-1.62 1.58-2.37 2.42-.46.52-1.09 1.36-1.87 1.29s-1.31-.91-1.77-1.42c-.72-.79-1.51-1.53-2.27-2.29-.94 0-1.89 0-2.84 0-.64 0-1.6.2-2.11-.31s-.34-1.32-.31-1.91c0-1 0-2 0-3-.8-.8-1.58-1.62-2.42-2.37-.52-.46-1.36-1.09-1.29-1.87s.91-1.31 1.42-1.77c.79-.72 1.53-1.51 2.29-2.27 0-.94 0-1.89 0-2.84 0-.64-.2-1.6.31-2.11s1.32-.34 1.91-.31h3c.77-.77 1.56-1.52 2.29-2.33.47-.52 1.07-1.37 1.85-1.38s1.38.88 1.84 1.38c.73.81 1.53 1.56 2.3 2.33h2.84c.64 0 1.6-.2 2.11.31s.34 1.32.31 1.91v3c.9.9 1.8 1.79 2.72 2.67.55.53 1.46 1.47.71 2.18z"/><path d="m42.69 32c-1 1-2.43 1.91-3.08 3.13a3.3 3.3 0 0 0 -.24 1.76v2.49c-1.22 0-3.15-.37-4.25.23s-2.12 2.11-3.12 3.08c-1-1-1.91-2.43-3.13-3.08a3.3 3.3 0 0 0 -1.76-.24c-.83 0-1.66 0-2.49 0 0-1.22.37-3.15-.23-4.25s-2.11-2.12-3.08-3.12c1-1 2.43-1.91 3.08-3.13a3.3 3.3 0 0 0 .24-1.76c0-.83 0-1.66 0-2.49 1.22 0 3.15.37 4.25-.23s2.12-2.11 3.12-3.08c1 1 1.91 2.43 3.13 3.08a3.3 3.3 0 0 0 1.76.24h2.49c0 1.22-.37 3.15.23 4.25s2.11 2.12 3.08 3.12z"/><path d="m42.69 32c-1 1-2.43 1.91-3.08 3.13a3.3 3.3 0 0 0 -.24 1.76v2.49c-1.22 0-3.15-.37-4.25.23s-2.12 2.11-3.12 3.08c-1-1-1.91-2.43-3.13-3.08a3.3 3.3 0 0 0 -1.76-.24c-.83 0-1.66 0-2.49 0 0-1.22.37-3.15-.23-4.25s-2.11-2.12-3.08-3.12c1-1 2.43-1.91 3.08-3.13a3.3 3.3 0 0 0 .24-1.76c0-.83 0-1.66 0-2.49 1.22 0 3.15.37 4.25-.23s2.12-2.11 3.12-3.08c1 1 1.91 2.43 3.13 3.08a3.3 3.3 0 0 0 1.76.24h2.49c0 1.22-.37 3.15.23 4.25s2.11 2.12 3.08 3.12z"/></g></svg>