<svg viewBox="0 0 64 64" xmlns="http://www.w3.org/2000/svg" xmlns:xlink="http://www.w3.org/1999/xlink"><linearGradient id="a" gradientUnits="userSpaceOnUse" x1="16.24" x2="56.24" y1="5.5" y2="54.83"><stop offset="0"/><stop offset="1" stop-color="#0068fa"/></linearGradient><linearGradient id="b" x1="15.08" x2="55.08" xlink:href="#a" y1="6.44" y2="55.77"/><linearGradient id="c" x1="25.66" x2="65.66" xlink:href="#a" y1="-2.14" y2="47.2"/><linearGradient id="d" x1="25.7" x2="65.7" xlink:href="#a" y1="-2.17" y2="47.16"/><linearGradient id="e" x1="-5.73" x2="34.27" xlink:href="#a" y1="23.31" y2="72.64"/><linearGradient id="f" x1="10.1" x2="50.1" xlink:href="#a" y1="10.48" y2="59.81"/><linearGradient id="g" x1="11.68" x2="51.68" xlink:href="#a" y1="9.2" y2="58.53"/><linearGradient id="h" x1="4.42" x2="44.42" xlink:href="#a" y1="15.08" y2="64.41"/><linearGradient id="i" x1="4.39" x2="44.39" xlink:href="#a" y1="15.11" y2="64.44"/><linearGradient id="j" x1="4.76" x2="44.76" xlink:href="#a" y1="14.81" y2="64.14"/><linearGradient id="k" x1="5.14" x2="45.14" xlink:href="#a" y1="14.5" y2="63.83"/><linearGradient id="l" x1="15.63" x2="55.63" xlink:href="#a" y1="6" y2="55.33"/><path d="m31.1 31.56a13.72 13.72 0 0 1 -13.6-11.68 13.82 13.82 0 0 1 7-14.09c.81-.44 3.16-1.87 3.62-.34.22.72-.49 1.23-.88 1.73a10.5 10.5 0 0 0 -1.34 2.25 10.8 10.8 0 0 0 14.33 14.24c.67-.3 1.61-1.2 2.36-1.06s.89 1.06.57 1.7a12.89 12.89 0 0 1 -3.1 3.9 13.71 13.71 0 0 1 -8.96 3.35z" fill="url(#a)"/><path d="m28.33 29.23a11.67 11.67 0 0 0 11-3.11 12.81 12.81 0 0 1 -15.14-17.77 11.71 11.71 0 0 0 4.14 20.88z" fill="url(#b)"/><path d="m42.64 20.29c-.85 0-2-1.18-2.58-1.64l-2.31-1.65-2.54 1.85c-.67.48-2 1.92-2.93 1.27s0-2.31.28-3.08l1-3.09-2.56-1.87c-.66-.48-2.45-1.34-2.11-2.39s2.2-.69 3-.69h3.24l1-3c.25-.79.51-2.75 1.61-2.75s1.34 1.88 1.59 2.65l1 3.09h3.14c.83 0 2.77-.36 3.11.69s-1.37 1.85-2 2.33l-2.58 1.92 1 3.18c.24.8 1.39 3.18-.36 3.18z" fill="url(#c)"/><path d="m37.75 14.74c.58 0 1.2.64 1.63.95l1.35 1-.54-1.69c-.17-.51-.54-1.21-.36-1.75s.89-.89 1.32-1.2l1.43-1h-1.77c-.53 0-1.32.13-1.77-.2s-.58-1.12-.74-1.62l-.55-1.73-.54 1.68c-.17.5-.28 1.29-.74 1.62s-1.24.2-1.77.2h-1.77l1.43 1c.43.31 1.15.66 1.32 1.2s-.2 1.24-.36 1.75l-.55 1.68 1.36-1c.43-.26 1.05-.89 1.62-.89z" fill="url(#d)"/><path d="m27.56 53h-8a1.72 1.72 0 0 0 -1.31.29c-.4.41-.29 1.12-.29 1.65v4.06h-3.96v-7.81a3.69 3.69 0 0 1 .14-1.69c.38-.65 1.26-.5 1.89-.5h3.28a16.31 16.31 0 0 1 2.52 0 2.08 2.08 0 0 1 1 .52z" fill="url(#e)"/><path d="m27.56 53h-8a1.72 1.72 0 0 0 -1.31.29c-.4.41-.29 1.12-.29 1.65v4.06h-3.96v-7.81a3.69 3.69 0 0 1 .14-1.69c.38-.65 1.26-.5 1.89-.5h3.28a16.31 16.31 0 0 1 2.52 0 2.08 2.08 0 0 1 1 .52z" fill="url(#e)"/><path d="m50 50v9h-4v-4c0-.53.12-1.3-.29-1.72a1.72 1.72 0 0 0 -1.31-.28h-8l3.15-2.29a8.88 8.88 0 0 1 2.52-1.71 8 8 0 0 1 1.69 0h2.68c.88 0 3.56-.46 3.56 1z" fill="url(#f)"/><path d="m50 50v9h-4v-4c0-.53.12-1.3-.29-1.72a1.72 1.72 0 0 0 -1.31-.28h-8l3.15-2.29a8.88 8.88 0 0 1 2.52-1.71 8 8 0 0 1 1.69 0h2.68c.88 0 3.56-.46 3.56 1z" fill="url(#f)"/><path d="m58.53 34.43-20.15 14.68-3.68 2.68a6.86 6.86 0 0 1 -1.7 1.21c-2.17.62-3.86-1.36-5.43-2.51l-9.24-6.69-12.86-9.37 2.35-3.23q10.18 7.41 20.31 14.8l3.28 2.39-.09-.08.22.16c.28.28.89 0 1.11-.17l-.09.08 20.09-14.61 3.53-2.57z" fill="url(#g)"/><path d="m58.53 34.43-20.15 14.68-3.68 2.68a6.86 6.86 0 0 1 -1.7 1.21c-2.17.62-3.86-1.36-5.43-2.51l-9.24-6.69-12.86-9.37 2.35-3.23q10.23 7.47 20.49 14.93a25.73 25.73 0 0 1 3.23 2.33c.62.62 2.63-1.26 3-1.54l5.91-4.31 12-8.78 3.63-2.64z" fill="url(#g)"/><path d="m31.32 48.3a1.33 1.33 0 0 0 .19.14.52.52 0 0 1 -.19-.14z" fill="url(#h)"/><path d="m31 40.98v4.62l-18.38-13.38 2.2-3.02z" fill="url(#i)"/><path d="m31 40.98v4.62l-18.38-13.38 2.2-3.02z" fill="url(#i)"/><path d="m32 48.57a.91.91 0 0 0 .23 0 .45.45 0 0 1 -.23 0z" fill="url(#j)"/><path d="m32.51 48.43.17-.13a.7.7 0 0 1 -.17.13z" fill="url(#k)"/><path d="m51.38 32.22-18.38 13.38v-4.62l16.18-11.78z" fill="url(#l)"/><path d="m51.38 32.22-18.38 13.38v-4.62l16.18-11.78z" fill="url(#l)"/><path d="m31.32 48.3a1.33 1.33 0 0 0 .19.14.52.52 0 0 1 -.19-.14z" fill="url(#h)"/><path d="m32 48.57a.91.91 0 0 0 .23 0 .45.45 0 0 1 -.23 0z" fill="url(#j)"/><path d="m32.68 48.3a.7.7 0 0 1 -.17.13z" fill="url(#k)"/></svg>