<svg height="64" viewBox="0 0 16.933333 16.933333" width="64" xmlns="http://www.w3.org/2000/svg"><path d="m2.4386108 10.847917h-.3219442l-.5250325 2.362129 4.830713-1.293978z" fill="#ffaf7a"/><path d="m3.175 2.9104166-1.8520834 6.6145833 7.14375 1.9140951 7.1437494-1.9140951-1.852083-6.6145833-1.322916.2645834-3.9687504.5265827-3.96875-.5265827z" fill="#ffc6a0"/><g fill="#ffaf7a"><path d="m7.9374999 3.6313028v7.0925902l-6.4652384-1.7321939-.1493449.5333008 7.14375 1.9140951v-7.7375123z"/><path d="m14.494722 10.847917-3.983736 1.067635 4.830713 1.294494-.525033-2.362129z"/><path d="m13.757816 9.2077065-.264583-1.0583333h-.484208l.219625 1.0288778z"/><path d="m13.064835 3.0489096-.503845.1007689 1.196826 4.7878214h.529167z"/><path d="m8.9941857 3.6313028v7.0925902l6.4652383-1.7321939.149345.5333008-7.14375 1.9140951v-7.7375123z"/></g><path d="m6.4223471 11.916068-.98702.264584 1.9115112.512113.9880533-.264583z" fill="#c44f00"/><path d="m.81095396 9.8644712c.07583846-.2830329.36474924-.4498357.64778224-.3739972l14.0250618 3.758004c.283033.07584.449836.364749.373997.647782-.07584.283033-.364749.449836-.647782.373998l-14.0250618-3.758005c-.28303296-.075838-.44983567-.364749-.37399724-.6477818z" fill="#ec5f00"/><path d="m.85007729 10.237101c.0651958.130526.18220101.234013.33486331.274919l14.0249834 3.758427c.283033.07584.572184-.09111.648023-.374138.07584-.283033-.0911-.572184-.374138-.648022l-.194303-.05219c.05573.111494.07422.242165.03927.372587-.07584.283033-.36499.449975-.648023.374137z" fill="#c44f00"/><path d="m3.9692667 7.9374999-.2645833 1.0583333 3.1936036.1772502 1.5683796.0873332 1.5683794-.0873332 3.193604-.1772502-.264584-1.0583333z" fill="#ffca28"/><path d="m11.641666 9.0909179.529167-.036174v-1.117244h-.529425z" fill="#ecb200"/><path d="m3.9692667 7.9374999-.1322917.5291667h3.5713582c.4935477 0 .9024536.3360655 1.0206096.791683l.037724.00207.037724-.00206c.1181561-.4556275.5270612-.791693 1.0206091-.791693h3.5713581l-.132292-.5291667z" fill="#ecb200"/><path d="m10.054167 7.93755v1.5875l.793749-.52917.79375.52917v-1.58751z" fill="#ffca28"/><path d="m11.1125 7.9374999v1.2345501l.529167.3529499v-1.5875z" fill="#ecb200"/><path d="m6.42233 11.91602-4.9727955 1.332457c-.283033.07584-.44983572.364749-.3739973.647782.075838.283032.3647493.449835.6477823.373997l6.743244-1.806847z" fill="#ec5f00"/><path d="m10.510896 11.915631 5.237486-1.403379c.283033-.07584.449836-.36475.373997-.6477815-.07584-.283033-.364749-.449836-.647782-.373998l-7.0079335 1.8777695z" fill="#ec5f00"/><path d="m15.872933 9.5415363c.0013.234677-.152359.4489109-.390157.5126307l-5.237407 1.403532-1.0562659-.283187-.7224365.193786 2.0443194.547254 5.237406-1.403532c.283033-.07584.449977-.364474.374138-.647506-.038245-.1427268-.131065-.2555745-.249597-.3229777z" fill="#c44f00"/><path d="m6.4223471 11.916068-.9865032.264067 2.043286.54777.9875367-.264583z" fill="#c44f00"/><path d="m9.5249293 2.64587h2.9101867l1.32282 5.29167h-4.2330077c-.586273 0-1.058255.47202-1.058262 1.05834-.000006-.58632-.471989-1.05834-1.0582616-1.05834h-4.2330081l1.3228195-5.29167h2.9101876c.5862736 0 1.0582276.47202 1.0582626 1.05834.000035-.58632.471989-1.05834 1.058263-1.05834z" fill="#e4eff8"/><path d="m3.3078084 7.4083332-.1322917.5291667h4.2328165c.5862725 0 1.0583273.4720132 1.0583334 1.0583333.0000068-.5863201.4720603-1.0583333 1.0583333-1.0583333h4.2328161l-.132291-.5291667h-4.1005251c-.586273 0-1.0583265.4720133-1.0583333 1.0583334-.0000061-.5863201-.4720609-1.0583334-1.0583334-1.0583334z" fill="#c4dcf0"/><path d="m4.4984333 2.6458333-.1317749.5276165 3.0416748.0015502c.5862736 0 1.0582984.4720132 1.0583334 1.0583333.0000349-.5863201.4720597-1.0583333 1.0583333-1.0583333l3.0416751-.0015502-.131775-.5276165h-2.9099001c-.5862736 0-1.0582984.4720132-1.0583333 1.0583333-.000035-.5863201-.4720598-1.0583333-1.0583334-1.0583333z" fill="#c4dcf0"/><path d="m4.498206 2.381252c-.1213191.00047-.2267129.0837-.2557981.20152l-.0646.25888-.950844-.19067c-.1727441-.0287-.2802181.0893-.3069581.18912l-1.7895517 6.3923595c-.267996.0644-.494291.27129-.57464101.564261-.11148399.4250605.136631.8573805.56172201.9709295l.692463.185501-.453718 2.04673c-.40434902.12275-.646068.54067-.535884.96473.11836399.42865.551076.67263.970998.56012l6.6760688-1.78837 6.6755521 1.78837c.419922.11251.855895-.13404.969448-.56012.112152-.41704-.126534-.83979-.534334-.96421l-.455784-2.046731.694529-.18602c.419922-.112519.673725-.54277.560172-.9709295-.07835-.29225-.306466-.498891-.574124-.565811l-1.788519-6.3902995c-.02674-.0998-.134213-.21836-.306957-.18963l-.951362.19067-.0646-.25888c-.02908-.11777-.13448-.20105-.255799-.20152h-2.9104121c-.4797409 0-.8542719.25132-1.058332.52912-.2040588-.2778-.57859-.52912-1.0583309-.52912zm.207222.52964h2.703191c.4390911 0 .7937219.35041.7937481.79471v4.23119c-.233794-.1770599-.5187902-.2637901-.7937481-.2637901h-3.8938139zm4.8198539 0h2.7031911l1.190623 4.7621099h-3.8938141c-.2749579 0-.561416.0867-.793749.2637901v-4.23119c.000027-.4443.3546581-.79471.793749-.79471zm-6.1618888.30848.6857449.1359-1.129645 4.5166601c-.04341.1661797.08458.3307998.256832.3301899h.4542351l-.182934.7296105c-.04011.161129.07656.31897.242362.32812l4.512379.25164v1.5129705l-6.533958-1.7506615zm10.2076309 0 1.694985 6.0544295-6.5344761 1.7506615v-1.5129705l1.058332-.0594v.0734c-.0008202.21217.2356881.33891.4118601.22064l.645955-.431471.646988.431471c.176171.11827.412676-.008.41186-.22064v-.19171l1.337902-.0739c.165803-.009.282473-.16699.242361-.328121l-.182934-.7296096h.453719c.172251.0006085.300241-.1640099.256831-.3301899l-1.129645-4.51615zm-8.279069.4852c-.352864 0-.352864.52912 0 .52912h2.1202811c.3528628 0 .3528628-.52912 0-.52912zm4.22971 0c-.3528642 0-.3528642.52912 0 .52912h2.120281c.352863 0 .352863-.52912 0-.52912zm-4.4942931 1.3228099c-.3528639 0-.3528639.5291201 0 .5291201h2.3848642c.3528628 0 .3528628-.5291201 0-.5291201zm4.498427 0c-.352864 0-.352864.5291201 0 .5291201h2.3807291c.352864 0 .352864-.5291201 0-.5291201zm-4.7619769 1.3222901c-.3528631 0-.3528631.5291299 0 .5291299h2.644797c.3528639 0 .3528639-.5291299 0-.5291299zm4.7619769 0c-.352864 0-.352864.5291299 0 .5291299h2.6442791c.352864 0 .352864-.5291299 0-.5291299zm-5.3490198 1.85245h3.2318399c.432981 0 .7856569.34227.7937481.7792195l-4.1630472-.2325295zm5.6130858 0v.7187595l-1.058332.0605c.0081-.4369495.3607681-.7792196.793749-.7792396zm.5291651 0h1.058332v.8293395l-.382921-.2562896c-.08875-.059-.204259-.059-.293005 0l-.382406.2562896zm1.587498 0h.85111l.136942.5477298-.988052.0548zm3.960993 1.7315395c.03709.1388915-.04247.2848205-.187585.3239805l-5.170736 1.384821-1.0231921-.274381 6.0569861-1.6219905c.154796-.0415.295246.0611.324527.18757zm-14.4766139-.18757 14.0254799 3.7576015c.146144.0392.224676.18612.186552.32398-.03296.13374-.177352.22673-.323495.18757l-14.0254799-3.757601c-.146142-.0392-.224499-.18415-.188102-.3239805.03376-.12597.165442-.230339.325045-.18757zm13.2208789 1.3439905.390157 1.755821-3.473168-.930101zm-12.289155.00053 3.0793949.82469-3.4695508.93061zm4.101553 1.09855 1.0237089.27438-5.7934368 1.55172c-.146143.0392-.29002-.0518-.324011-.189649-.03606-.13787.04144-.28276.187586-.32192z" fill="#333"/></svg>