<?xml version="1.0" encoding="iso-8859-1"?>
<!-- Uploaded to: SVG Repo, www.svgrepo.com, Generator: SVG Repo Mixer Tools -->
<svg height="800px" width="800px" version="1.1" id="Layer_1" xmlns="http://www.w3.org/2000/svg" xmlns:xlink="http://www.w3.org/1999/xlink" 
	 viewBox="0 0 512 512" xml:space="preserve">
<path style="fill:#F7EDBC;" d="M508.646,214.579C488.848,92.893,383.28,0,256,0C114.615,0,0,114.615,0,256
	c0,122.861,86.556,225.489,202.011,250.278L508.646,214.579z"/>
<path style="fill:#FFD652;" d="M512,256c0-14.104-1.159-27.936-3.352-41.421L377.988,83.921L168.775,473.042l33.235,33.236
	C219.419,510.014,237.476,512,256,512C397.384,512,512,397.384,512,256z"/>
<polygon style="fill:#F15D4A;" points="343.219,473.042 255.998,417.39 222.606,306.086 343.219,306.086 "/>
<polygon style="fill:#FF9075;" points="168.775,473.042 255.998,417.39 255.998,306.086 168.775,306.086 "/>
<path style="fill:#C42725;" d="M255.998,33.39l-97.513,172.522l97.513,172.522c95.281,0,172.522-77.241,172.522-172.522
	S351.279,33.39,255.998,33.39z"/>
<path style="fill:#E24642;" d="M83.476,205.912c0,95.281,77.241,172.522,172.522,172.522V33.39
	C160.717,33.39,83.476,110.631,83.476,205.912z"/>
<path style="fill:#F15D4A;" d="M255.998,72.347l-75.493,133.565l75.493,133.565c73.766,0,133.565-59.799,133.565-133.565
	S329.764,72.347,255.998,72.347z"/>
<path style="fill:#FF9075;" d="M122.433,205.912c0,73.766,59.799,133.565,133.565,133.565V72.347
	C182.232,72.347,122.433,132.146,122.433,205.912z"/>
<path style="fill:#F7EDBC;" d="M255.998,94.608l-62.911,111.304l62.911,111.304c61.471,0,111.304-49.833,111.304-111.304
	S317.469,94.608,255.998,94.608z"/>
<path style="fill:#FFFFFF;" d="M144.693,205.912c0,61.471,49.833,111.304,111.304,111.304V94.608
	C194.525,94.608,144.693,144.441,144.693,205.912z"/>
<polygon style="fill:#F15D4A;" points="311.65,141.355 345.043,197.008 283.749,218.824 283.749,168.715 "/>
<polygon style="fill:#FF7452;" points="256.145,141.635 256.145,141.357 256,141.49 255.844,141.357 255.844,141.635 
	228.246,168.715 228.246,218.824 283.749,218.824 283.749,168.715 "/>
<polygon style="fill:#FF9075;" points="228.246,168.715 228.246,218.824 166.957,197.008 200.346,141.355 "/>
<polygon style="fill:#E24642;" points="255.855,141.355 283.749,197.008 311.65,141.355 "/>
<g>
	<polygon style="fill:#F15D4A;" points="256.14,141.355 228.246,197.008 200.346,141.355 	"/>
	<polygon style="fill:#F15D4A;" points="283.749,197.008 228.246,197.008 214.413,232.69 255.998,291.616 297.582,232.69 	"/>
</g>
<polygon style="fill:#E24642;" points="283.749,197.008 255.998,291.616 345.041,197.008 "/>
<polygon style="fill:#FF7452;" points="228.246,197.008 255.998,291.616 166.954,197.008 "/>
</svg>