<?xml version="1.0" encoding="iso-8859-1"?>

<!DOCTYPE svg PUBLIC "-//W3C//DTD SVG 1.1//EN" "http://www.w3.org/Graphics/SVG/1.1/DTD/svg11.dtd">
<!-- Uploaded to: SVG Repo, www.svgrepo.com, Generator: SVG Repo Mixer Tools -->
<svg height="800px" width="800px" version="1.1" id="_x36_" xmlns="http://www.w3.org/2000/svg" xmlns:xlink="http://www.w3.org/1999/xlink" 
	 viewBox="0 0 512 512"  xml:space="preserve">
<g>
	<path style="fill:#E9E8DB;" d="M509.923,288.418c1.412-10.591,2.039-21.418,2.039-32.4c0-10.984-0.627-21.887-2.039-32.478
		c-32.243-5.021-58.052-10.748-60.406-19.456c-2.432-9.022,16.945-27.144,42.363-47.697c-8.393-19.77-19.142-38.284-31.928-55.15
		c-30.439,11.768-55.778,19.69-62.368,13.18c-6.511-6.511,1.413-31.929,13.18-62.29c-16.788-12.865-35.381-23.613-55.15-32.007
		c-20.553,25.34-38.675,44.795-47.697,42.363c-8.708-2.275-14.514-28.163-19.456-60.406c-10.59-1.334-21.495-2.041-32.478-2.041
		c-10.983,0-21.809,0.706-32.399,2.041c-4.943,32.243-10.748,58.13-19.456,60.406c-9.021,2.432-27.144-17.023-47.619-42.363
		c-19.847,8.316-38.362,19.142-55.228,32.007c11.689,30.361,19.612,55.779,13.101,62.29c-6.512,6.511-31.851-1.412-62.29-13.18
		c-12.787,16.867-23.614,35.381-31.929,55.15c25.339,20.554,44.717,38.676,42.364,47.697c-2.354,8.708-28.164,14.435-60.406,19.456
		C0.707,234.131,0,245.035,0,256.018c0,10.982,0.707,21.809,2.119,32.4c32.243,5.021,58.052,10.748,60.406,19.456
		c2.353,9.021-17.103,27.143-42.442,47.697c8.394,19.769,19.142,38.283,32.008,55.15c30.439-11.768,55.778-19.69,62.29-13.18
		c6.511,6.511-1.412,31.929-13.101,62.368c16.788,12.866,35.381,23.614,55.149,31.929c20.554-25.34,38.677-44.795,47.698-42.363
		c8.708,2.275,14.514,28.164,19.456,60.406c10.59,1.412,21.416,2.119,32.399,2.119c10.983,0,21.888-0.707,32.478-2.119
		c4.942-32.242,10.748-58.13,19.456-60.406c9.022-2.432,27.144,17.023,47.697,42.363c19.77-8.315,38.362-19.064,55.15-31.929
		c-11.767-30.438-19.691-55.856-13.18-62.368c6.59-6.511,31.929,1.412,62.368,13.18c12.865-16.867,23.613-35.381,31.928-55.15
		c-25.339-20.554-44.794-38.676-42.363-47.697C451.871,299.166,477.681,293.439,509.923,288.418z M338.511,266.53
		c-0.941,7.689-2.903,14.984-5.805,21.81c-2.746,6.433-6.198,12.474-10.433,17.965c-4.551,6.041-9.964,11.376-15.926,16.004
		c-5.491,4.157-11.533,7.609-17.966,10.355c-6.825,2.901-14.199,4.942-21.809,5.883c-3.452,0.47-6.982,0.628-10.591,0.628
		c-3.53,0-7.06-0.158-10.512-0.628c-7.689-0.941-14.984-2.982-21.809-5.883c-6.434-2.746-12.474-6.198-17.965-10.355
		c-6.041-4.629-11.376-9.963-16.004-16.004c-4.157-5.491-7.687-11.532-10.355-17.965c-2.904-6.826-4.943-14.121-5.884-21.81
		c-0.471-3.451-0.628-6.982-0.628-10.512c0-3.608,0.156-7.139,0.628-10.591c0.941-7.609,2.98-14.983,5.884-21.809
		c2.746-6.433,6.197-12.395,10.355-17.887c4.629-6.041,9.963-11.453,16.004-16.003c5.492-4.159,11.532-7.689,17.965-10.435
		c6.825-2.903,14.12-4.864,21.809-5.805c3.452-0.471,6.982-0.707,10.512-0.707c3.609,0,7.139,0.236,10.591,0.707
		c7.609,0.94,14.984,2.981,21.809,5.805c6.433,2.746,12.474,6.276,17.966,10.435c5.962,4.549,11.375,9.962,15.926,16.003
		c4.157,5.492,7.687,11.454,10.433,17.887c2.824,6.826,4.864,14.199,5.805,21.809c0.47,3.452,0.705,6.983,0.705,10.591
		C339.216,259.548,338.981,263.079,338.511,266.53z"/>
	<path style="fill:#F3F2E9;" d="M179.336,223.582c2.747-6.433,6.198-12.396,10.355-17.887c4.629-6.041,9.963-11.453,16.004-16.003
		c5.491-4.157,11.532-7.688,17.965-10.434c6.825-2.903,14.12-4.864,21.809-5.805c3.451-0.471,6.982-0.706,10.512-0.706V0
		c-10.983,0-21.809,0.706-32.399,2.039c-4.943,32.243-10.748,58.132-19.456,60.407c-9.021,2.432-27.144-17.025-47.619-42.363
		c-19.847,8.316-38.362,19.142-55.229,32.007c11.689,30.36,19.612,55.779,13.102,62.29c-6.512,6.511-31.851-1.412-62.29-13.18
		c-12.787,16.867-23.614,35.381-31.929,55.15c25.339,20.554,44.717,38.675,42.362,47.697c-2.353,8.707-28.162,14.435-60.405,19.456
		C0.706,234.094,0,244.998,0,255.982c0,10.982,0.706,21.809,2.119,32.399c32.243,5.021,58.052,10.748,60.405,19.456
		c2.355,9.022-17.102,27.143-42.441,47.697c8.394,19.769,19.142,38.284,32.008,55.15c30.439-11.767,55.778-19.691,62.29-13.179
		c6.51,6.511-1.413,31.928-13.102,62.367c16.788,12.866,35.381,23.615,55.15,31.93c20.554-25.34,38.677-44.795,47.698-42.364
		c8.708,2.276,14.514,28.164,19.456,60.406c10.59,1.412,21.416,2.119,32.399,2.119V339.139c-3.53,0-7.06-0.158-10.512-0.628
		c-7.689-0.941-14.984-2.981-21.809-5.883c-6.434-2.747-12.474-6.198-17.965-10.356c-6.041-4.628-11.376-9.963-16.004-16.004
		c-4.157-5.491-7.687-11.532-10.355-17.965c-2.903-6.826-4.942-14.121-5.883-21.81c-0.471-3.452-0.629-6.982-0.629-10.512
		c0-3.609,0.157-7.139,0.629-10.591C174.394,237.781,176.433,230.407,179.336,223.582z"/>
	<path style="fill:#FEFFFE;" d="M255.942,131.087c-68.957,0-124.891,55.935-124.891,124.971
		c0,68.957,55.934,124.892,124.891,124.892c69.036,0,124.971-55.935,124.971-124.892
		C380.913,187.022,324.977,131.087,255.942,131.087z M338.472,266.57c-0.942,7.688-2.903,14.985-5.806,21.81
		c-2.746,6.433-6.198,12.473-10.433,17.964c-4.551,6.042-9.963,11.376-15.926,16.004c-5.491,4.158-11.533,7.61-17.965,10.355
		c-6.825,2.903-14.2,4.942-21.809,5.884c-3.452,0.47-6.982,0.628-10.592,0.628c-3.53,0-7.06-0.157-10.512-0.628
		c-7.689-0.942-14.984-2.981-21.809-5.884c-6.434-2.745-12.473-6.197-17.966-10.355c-6.04-4.629-11.375-9.963-16.003-16.004
		c-4.158-5.491-7.688-11.531-10.355-17.964c-2.903-6.825-4.943-14.122-5.885-21.81c-0.47-3.451-0.627-6.982-0.627-10.512
		c0-3.609,0.156-7.14,0.627-10.591c0.942-7.609,2.982-14.984,5.885-21.809c2.745-6.434,6.197-12.395,10.355-17.886
		c4.628-6.042,9.963-11.454,16.003-16.004c5.493-4.157,11.532-7.689,17.966-10.434c6.825-2.902,14.12-4.863,21.809-5.805
		c3.452-0.47,6.982-0.706,10.512-0.706c3.61,0,7.14,0.236,10.592,0.706c7.609,0.942,14.984,2.981,21.809,5.805
		c6.432,2.745,12.474,6.277,17.965,10.434c5.962,4.551,11.375,9.963,15.926,16.004c4.158,5.491,7.687,11.453,10.433,17.886
		c2.824,6.825,4.864,14.199,5.806,21.809c0.47,3.451,0.705,6.982,0.705,10.591C339.177,259.588,338.943,263.118,338.472,266.57z"/>
</g>
</svg>