<svg enable-background="new 0 0 520 520" viewBox="0 0 520 520" xmlns="http://www.w3.org/2000/svg"><path d="m48.29 7.44c.88-1.58 3.15-.34 4.01-1.96h217.58c2.94 2.16 6.69 2.5 9.71 4.74 6.62 4.91 10.21 11.26 10.22 19.41.05 58.11.02 116.22.01 174.33 0 0 .04.26.04.26-10.76-.04-21.52-.1-32.28-.1-1.61 0-3.35-.43-4.73.9-1.44 0-2.79.25-3.91 1.26-9.24 2.41-16.59 11.77-17.12 21.8-1.97 5.9-.32 11.97-.89 17.94-51.71 0-103.43 0-155.14 0-16.08 0-26.49-10.37-26.49-26.38 0-68.67.01-137.35-.04-206.02 0-2.07.84-4.36-.97-6.18zm149.93 171.6c3.26 8.45 6.7 16.83 9.71 25.36 2.06 5.84 5.3 8.16 9.86 7.96 6.93-.31 8.61-5.64 6.55-11.35-5.73-15.95-11.72-31.82-17.73-47.67-4.75-12.53-9.77-24.97-14.53-37.5-6.76-17.79-13.38-35.63-20.08-53.43-1.9-5.06-6.13-6.75-11.01-7.01-4.91-.26-8.07 2.61-10.16 6.73-1.34 2.66-2.55 5.39-3.6 8.18-8.37 22.25-16.65 44.53-25.04 66.77-7.93 21.01-15.99 41.97-23.95 62.97-2.16 5.71-.43 10.63 4.27 12.67 3.73 1.61 9.21-1.49 11.17-6.52 3.52-9.02 6.93-18.08 10.38-27.12 24.72-.01 49.44-.03 74.16-.04z" fill="#eaecea"/><path d="m248.94 206.26c1.11-1.01 2.47-1.26 3.91-1.26 12.33-.01 24.67-.02 37-.03 32.19.04 64.38.1 96.56.1 27.04 0 54.09-.08 81.13-.12 10.06 1.25 16.14 7.73 20.89 15.94.02 2.03.04 4.05.06 6.08-.01 71.23-.01 142.45-.02 213.68.04 1.76.02 3.5-1.18 4.96-68.97 0-137.94-.01-206.92.04-4 0-7.93-.35-11.83-1.09-11.43-2.17-19.62-11.43-19.62-22.41-.01-71.96.01-143.92.02-215.89zm142.78 105.71c4.7-1.55 6.68-4.99 5.73-9.63-.92-4.49-4.23-6.45-8.81-6.44-8.64.03-17.3.17-25.93-.12-9.57-.32-17.27-11.92-14.12-20.83 4.55-12.87 17.41-16.03 28.29-6.94 4.63 3.86 8.83 3.93 12.27.19 2.8-3.04 2.03-8.89-1.28-12.55-8.77-9.72-28.08-11.81-39.37-5.44-12.15 6.86-18.98 20.93-16.77 34.67 1.09 6.76 4.8 12.17 8.88 17.68-1.47.87-2.74 1.62-4 2.39-22.42 13.47-34.38 40.16-29.59 63.91 6.93 34.31 39.55 56.64 71.23 50.79 10.59-1.95 20.4-5.67 28.77-12.64 3.7-3.08 3.42-7.12 1.66-10.86-1.91-4.05-5.91-3.93-9.58-3.11-1.68.37-3.14 1.78-4.68 2.76-13.24 8.44-27.24 10.71-42.07 4.86-21-8.28-34.06-30.69-28.26-52.92 5.04-19.31 18.85-32.4 40.54-35 4.14.05 8.28.31 12.41.1 4.9-.27 9.9 1.05 14.68-.87z" fill="#5a94cf"/><path d="m248.94 206.26c-.01 71.96-.04 143.93-.02 215.89 0 10.99 8.2 20.24 19.62 22.41 3.91.74 7.83 1.1 11.83 1.09 68.97-.06 137.94-.04 206.92-.04-1.62 4.31-4 8.01-7.74 10.89-6.86 5.27-14.74 6.36-23.02 6.17-.27.01-.67-.09-.79.05-.18.22-.24.6-.24.91 0 15.63.02 31.26.03 46.89-.74 2.59-2.61 4.29-4.66 5.84-5.51 1.1-9.44-.92-13.4-5.01-14.38-14.84-29.2-29.26-43.85-43.83-.09-.32-.19-.64-.28-.97-.66-1.83-2.31-2.78-3.62-4.03-1.48-1.64-3.43-.9-5.16-.9-41.7-.05-83.39-.04-125.09 0-1.56 0-3.35-.73-4.68.81-4.66.07-8.22-3.54-12.78-3.8-4.74-6.37-10.68-12.15-10.25-21.03.05-.5.13-.99.13-1.49.01-55.47.02-110.95 0-166.42 0-1.26.47-2.69-.82-3.7-.01-.7-.01-1.41-.02-2.11.75-.44.78-1.14.67-1.89.02-11.31.05-22.62.07-33.93.56-10.02 7.91-19.38 17.15-21.8z" fill="#56a0d7"/><path d="m48.29 7.44c1.82 1.81.97 4.11.98 6.17.05 68.67.04 137.35.04 206.02 0 16.01 10.41 26.38 26.49 26.38h155.14c-.01 5.29-.02 10.58-.03 15.87-31.02.03-62.04.05-93.06.14-1.91.01-4-.69-5.73.8-1.01 1.03-2.01 2.06-3.02 3.08-.6.59-1.21 1.19-1.81 1.78-.91 1.15-1.71 2.41-2.74 3.45-14.24 14.29-28.53 28.53-42.77 42.83-1.66 1.67-3.43 3.08-5.63 3.94-4.84-.16-8.87-1.49-9.99-6.98.04-14.97.09-29.93.08-44.9 0-1.01.62-2.42-1.05-2.9-6.96-.29-14.09.62-20.3-3.91-6.26-4.57-11.59-9.62-11.63-18.12.02-70.17.05-140.34.06-210.5 0-1.13.3-2.36-.83-3.21.94-2.98 1.89-5.96 2.83-8.94 3.26-4.92 7.54-8.64 12.97-11z" fill="#d8dbd9"/><path d="m35.33 18.44c-.94 2.98-1.89 5.96-2.83 8.94-.05 1-.15 1.99-.15 2.99-.01 68.67-.01 137.34.01 206.01 0 1.59-.49 3.36.91 4.72.04 8.51 5.36 13.55 11.63 18.12 6.21 4.53 13.34 3.62 20.3 3.91.03 14.2.03 28.39.1 42.59.01 1.76-.54 3.66.86 5.21 1.12 5.49 5.16 6.81 9.99 6.98-1.85 4.42-5.68 4.33-9.44 3.92-3.33-.36-5.03-2.65-5.55-5.87.04-14.99.09-29.98.09-44.98 0-1.02.54-2.4-1.08-2.88-8.14-.05-16.18.16-23.13-5.62-5.04-4.2-7.43-9.61-9.48-15.43 1.32-1 .8-2.42.8-3.69.01-69.26 0-138.51-.03-207.77 0-1.42.63-3.02-.78-4.2 1.33-3.77 2.34-7.66 4.74-11 .83-1.16 1.48-2.13 3.04-1.95z" fill="#262426"/><path d="m450.9 516.36c2.05-1.55 3.92-3.24 4.66-5.84 1.5-1.7.92-3.78.93-5.7.06-14.05.05-28.09.06-42.14 8.27.19 16.16-.9 23.02-6.17 3.74-2.88 6.12-6.58 7.74-10.89 1.2-1.46 1.22-3.21 1.18-4.96 1.68-1.65.93-3.77.93-5.66.05-67.63.05-135.27 0-202.9 0-1.71.81-3.67-.91-5.12-.02-2.03-.04-4.05-.06-6.08 3.3 2.58 3.7 6.33 4.06 10.09 0 71.24.01 142.48.01 213.72.09 10.86-11.56 21.62-21.93 21.95-3.35.11-6.86-1.04-10.03 1.01-.27 0-.66-.1-.77.03-.19.22-.26.59-.26.89.02 15.32.05 30.64.08 45.95-2.19 4.09-5.86.98-8.71 1.82z" fill="#242726"/><path d="m389.75 462.52c1.31 1.25 2.96 2.2 3.62 4.03-42.63.01-85.26 0-127.89.07-1.88 0-3.98-.85-5.66.82-6.87-1.03-13.22-3.11-17.78-8.81 4.56.26 8.12 3.87 12.78 3.8 44.97.03 89.95.06 134.93.09z" fill="#242726"/><path d="m129.1 265.9c1.01-1.03 2.01-2.06 3.02-3.08 31.12.05 62.24.09 93.36.2 1.87.01 3.97-.84 5.61.86.01.7.01 1.41.02 2.11-.12.28-.19.56-.2.87-1.28.06-2.55.12-3.83.18-30.79-.02-61.58-.03-92.38-.11-1.88 0-4.02.8-5.6-1.03z" fill="#262526"/><path d="m27.55 31.39c1.41 1.18.78 2.78.78 4.2.03 69.26.04 138.51.03 207.77 0 1.27.52 2.69-.8 3.69-.07-2.82-.21-5.64-.21-8.46-.01-66.24-.01-132.49 0-198.73 0-2.83.13-5.65.2-8.47z" fill="#625d5e"/><path d="m492.5 444.71c0-71.24-.01-142.48-.01-213.72 1.72 1.45.9 3.41.91 5.12.05 68.01.05 136.01 0 204.02-.01 1.51.82 3.33-.9 4.58z" fill="#5b5531"/><path d="m467.54 204.96c-27.04.04-54.09.12-81.13.12-32.19 0-64.38-.06-96.57-.1-.01-.26-.01-.51 0-.77 0 0-.04-.26-.04-.26 36.55.04 73.11.1 109.66.13 20.77.02 41.54-.01 62.31.03 1.95.02 4.03-.6 5.77.85z" fill="#adc4e6"/><path d="m230.91 266.86c.01-.3.08-.59.2-.87 1.29 1 .82 2.44.82 3.7.02 55.47.01 110.95 0 166.42 0 .5-.09.99-.13 1.49-1.49-1.74-.81-3.83-.81-5.75-.06-55-.07-109.99-.08-164.99z" fill="#ebf1f9"/><path d="m259.82 467.44c1.67-1.67 3.78-.82 5.66-.82 42.63-.07 85.26-.06 127.89-.07.09.32.19.64.28.97-44.61-.03-89.22-.05-133.83-.08z" fill="#a59779"/><path d="m129.1 265.9c1.59 1.83 3.72 1.03 5.6 1.03 30.79.07 61.58.08 92.38.11-.68 1.43-2.01.91-3.07.91-31.42.03-62.83.02-94.25.01-.82 0-1.65-.17-2.47-.27.6-.6 1.2-1.2 1.81-1.79z" fill="#50494b"/><path d="m60.17 268.09c1.62.48 1.08 1.86 1.08 2.88 0 14.99-.05 29.98-.09 44.98-1.42-1.55-.85-3.46-.86-5.21-.08-14.22-.09-28.43-.13-42.65z" fill="#969292"/><path d="m459.6 514.54c-.03-15.32-.06-30.64-.08-45.95 0-.31.07-.68.26-.89.11-.13.51-.03.77-.03-.02 13.91 0 27.83-.09 41.74-.01 1.71.79 3.66-.86 5.13z" fill="#8d7e5d"/><path d="m124.06 179.09c-3.45 9.04-6.86 18.1-10.38 27.12-1.96 5.02-7.45 8.13-11.17 6.52-4.7-2.03-6.43-6.96-4.27-12.67 7.96-21 16.02-41.96 23.95-62.97 8.4-22.24 16.67-44.53 25.04-66.77 1.05-2.79 2.26-5.52 3.6-8.18 2.09-4.13 5.25-6.99 10.16-6.73 4.88.26 9.11 1.94 11.01 7.01 6.7 17.81 13.32 35.64 20.07 53.43 4.76 12.53 9.78 24.96 14.53 37.5 6.01 15.85 11.99 31.72 17.73 47.67 2.05 5.72.38 11.04-6.55 11.35-4.56.2-7.79-2.12-9.86-7.96-3.01-8.53-6.46-16.92-9.72-25.36-1.19-1.31-2.78-.88-4.22-.88-21.92-.02-43.84-.03-65.76 0-1.41-.01-3.02-.5-4.16.92zm7.11-17.98c.37.3.75.87 1.12.87 19.2.09 38.4.14 57.6.16 1.3 0 2.48-.31 1.35-2.04-9.81-25.8-19.61-51.6-29.42-77.4-3.33 5.87-5.47 11.69-7.71 17.48-6.56 16.89-13.36 33.68-19.57 50.69-1.21 3.32-3.45 6.45-3.37 10.24z" fill="#56a0d7"/><path d="m124.06 179.09c1.14-1.42 2.75-.92 4.18-.92 21.92-.03 43.84-.03 65.76 0 1.44 0 3.03-.43 4.22.88-24.72 0-49.44.02-74.16.04z" fill="#cfe4f0"/><path d="m289.85 204.21c-.01.26-.01.51 0 .77-12.33.01-24.67.02-37 .02 1.38-1.32 3.12-.9 4.73-.9 10.75.01 21.51.07 32.27.11z" fill="#93c6eb"/><path d="m230.91 261.88c.01-5.29.02-10.58.03-15.87.57-5.97-1.09-12.04.89-17.94-.02 11.31-.05 22.62-.07 33.93-.29-.01-.57-.05-.85-.12z" fill="#cbe4eb"/><path d="m488.49 226.97c1.72 1.45.91 3.42.91 5.12.05 67.63.05 135.27 0 202.9 0 1.89.75 4.01-.93 5.66.01-71.23.02-142.45.02-213.68z" fill="#2683c0"/><path d="m364.65 312.72c6.81-1.82 13.76-.43 20.63-.82 2.14-.12 4.3.04 6.44.07-4.79 1.93-9.78.6-14.67.85-4.12.21-8.27-.05-12.4-.1z" fill="#b1d6f2"/><path d="m389.75 462.52c-44.98-.03-89.96-.06-134.93-.09 1.33-1.54 3.12-.81 4.68-.81 41.7-.04 83.39-.04 125.09 0 1.72.01 3.68-.74 5.16.9z" fill="#146c7f"/><path d="m230.91 261.88c.28.07.56.11.85.12.11.75.08 1.44-.67 1.89-1.64-1.71-3.74-.86-5.61-.86-31.12-.11-62.24-.15-93.36-.2 1.73-1.5 3.82-.8 5.73-.8 31.02-.1 62.04-.12 93.06-.15z" fill="#a8aca9"/><path d="m456.54 462.68c-.01 14.05 0 28.09-.06 42.14-.01 1.92.57 4-.93 5.7-.01-15.63-.03-31.26-.03-46.89 0-.31.05-.69.24-.91.11-.13.51-.04.78-.04z" fill="#167592"/><path d="m33.27 241.09c-1.4-1.36-.9-3.12-.91-4.72-.03-68.67-.02-137.34-.01-206.01 0-1 .1-1.99.15-2.99 1.13.85.83 2.09.83 3.21-.01 70.17-.04 140.34-.06 210.51z" fill="#949594"/><path d="m66.16 310.92c-1.4-1.55-.86-3.46-.86-5.21-.07-14.2-.08-28.39-.1-42.59 1.66.48 1.05 1.89 1.05 2.9-.01 14.97-.06 29.94-.09 44.9z" fill="#686768"/><path d="m131.17 161.11c-.08-3.79 2.16-6.91 3.38-10.23 6.2-17.01 13.01-33.81 19.57-50.69 2.25-5.78 4.39-11.61 7.71-17.48 9.81 25.8 19.61 51.6 29.42 77.4-1.1 1.41-2.68 1.07-4.12 1.06-18.66-.01-37.31-.04-55.96-.06z" fill="#eaecea"/><path d="m131.17 161.11c18.65.02 37.3.05 55.95.06 1.44 0 3.02.34 4.12-1.06 1.13 1.72-.06 2.04-1.35 2.04-19.2-.02-38.4-.07-57.6-.16-.38-.02-.75-.58-1.12-.88z" fill="#8fccef"/></svg>