<svg enable-background="new 0 0 400 400" viewBox="0 0 400 400" xmlns="http://www.w3.org/2000/svg"><path d="m40.57 8.75h163.18c11.7 4.1 15.15 11.03 15.07 22.97-.26 41.97-.08 83.95-.07 125.93-8.74.01-17.49.01-26.23.02-4.6-2.8-13.97-.81-12.11 5.94-10.78 3.21-8.63 16.05-8.1 25.52-38.92.01-77.85.01-116.77.02-9.54-1.09-14.87-6.78-17.22-15.73 0-52.99.01-105.98-.03-158.96 0-1.42-.48-2.83-.73-4.25 1.01-.48 2.01-.97 3.01-1.46zm107.79 130.25c-2.25 3.64 3.44 14.54 5.17 18.57 2.36 5.5 5.67 11.88 11.3 7 .24-.08.48-.15.72-.2 12.35 6.85 6.31-13.69 4.35-18.62-4.44-11.16-8.53-22.42-12.68-33.7-4.83-13.14-9.76-26.37-14.95-39.37-2.85-7.14-6.39-23.29-12.62-27.24-6.89-10.09-17.82 3.37-20.14 9.28-4.36 11.08-8.11 22.37-12.67 33.37-5.33 12.86-9.89 25.99-15.05 38.91-2.57 6.42-14.73 26.98-10.52 33.71 3.02 4.1 5.02 8.59 8.98 3.86 3.77-.6 5.64-3.07 6.89-6.48 2.34-6.4 4.91-12.72 7.39-19.08 17.94-.01 35.89-.01 53.83-.01z" fill="#eceaec"/><path d="m26.33 24.45c.97-6.93 5.12-11.36 11.23-14.23.26 1.42.73 2.83.73 4.25.04 52.99.03 105.98.03 158.96-2.84 1.24-1.47 3.26-.82 5.01 3.79 10.23 12.73 13.39 22.03 13.51 37.17.48 74.35.21 111.52.17 1.17 0 2.34-.47 3.51-.72 0-.75 0-1.49 0-2.24.2-.01.39-.02.59-.02 0 4 .01 8 .01 12-23.6 0-47.2-.01-70.8.02-1.3 0-2.59.44-3.89.67-11.07 10.95-22.14 21.9-33.2 32.87-1.23 1.22-2.33 2.57-3.5 3.86-.23.02-.46.03-.69.02-3.71-.25-8.11 2.03-10.6-2.88-.12-.23-.93-.1-1.42-.14 0-10.73 0-21.46 0-32.19 5.59-.93-.46-3.26-2.05-3.52-4.41-.7-5.33 1.01-9.73-1.52-6.05-3.49-8.58-10.2-13.64-14.42-.02-.25-.06-.49-.09-.74.02-.5.05-1 .07-1.51.24-1.17.69-2.35.69-3.52.04-51.23.03-102.46.02-153.69z" fill="#dbd8db"/><path d="m26.33 24.45c.01 51.23.02 102.46-.01 153.7 0 1.17-.45 2.35-.69 3.52-.01-51.65-.03-103.3-.04-154.95.25-.76.49-1.52.74-2.27z" fill="#e9e7e9"/><path d="m293.7 351.48c-1.04.04-2.08.08-3.12.13-31.2-.01-62.39-.02-93.59-.02-.74 0-1.48.1-2.23.15v-.27c15.64-2.83 33.57-.64 49.46-.64 15.94 0 33.82-2.24 49.48.65z" fill="#ffe8d3"/><path d="m174.55 201.89c-.5 0-.99 0-1.49 0-24.2-.02-48.4-.04-72.59-.07 1.3-.23 2.59-.67 3.89-.67 23.6-.04 47.2-.03 70.8-.02.01.25.01.5.02.75-.21 0-.42 0-.63.01z" fill="#e0dde0"/><path d="m26.29 185.43c-.21-.51-.43-1.01-.64-1.52 5.07 4.22 7.59 10.93 13.64 14.42 4.4 2.54 5.32.83 9.73 1.52 1.59.25 7.65 2.59 2.05 3.52-.26-.5-.52-.99-.77-1.49-2.24 0-4.49-.01-6.73-.01-.75-.25-1.5-.5-2.25-.75-1.82-2.38-4.34-3.1-6.63-5.11-3.42-3.01-5.2-7.35-8.4-10.58z" fill="#dbd8db"/><path d="m50.3 201.88c.26.5.52.99.77 1.49v32.19c-.02.75-.04 1.51-.05 2.26-.24-1-.48-2.01-.73-3.01.01-10.98.01-21.96.01-32.93z" fill="#f2f1f2"/><path d="m94.52 139c-2.48 6.36-5.05 12.68-7.39 19.08-1.25 3.41-3.12 5.88-6.89 6.48-5.19-1.24-7.1-4.71-5.3-9.63 2.49-6.81 4.98-13.62 7.47-20.43.78-1.99 1.56-3.98 2.34-5.97 1.22-3.25 2.44-6.5 3.65-9.75.78-1.99 1.56-3.98 2.33-5.97.8-1.75 1.59-3.51 2.39-5.26.9-.47 2.45-.81 2.59-1.45.57-2.63.71-5.36 1-8.05.18-.36.36-.71.55-1.07.62-1.72 1.23-3.43 1.85-5.15 3.39.26 2.7-2.53 3.13-4.33.84-3.57 4.11-6.53 2.7-10.66.05-.24.1-.49.16-.73 3.39.27 2.71-2.52 3.13-4.33.84-3.57 4.11-6.53 2.7-10.66.05-.24.1-.49.15-.73 3.48-2.25 2.77-5.03 5.03-8.13 2.03-2.8 5.01-3.26 6.8-5.98 1.25.49 2.49.98 3.74 1.47.82 4.12 2.24 7.9 5.91 10.4 5.71 15.08 10.98 30.34 16.62 45.45.23 1.6.66 3.19.64 4.79-.03 2.24 1.35 2.2 2.88 2.16.05.24.1.49.16.73-1.03 3.86.48 7.94 3.85 10.45v-.02c-.99 2.23-2.3 4.61 1.98 4.57.05.24.1.49.16.73-1.03 3.86.48 7.94 3.85 10.45v-.02c-.98 2.23-2.31 4.61 1.97 4.57.05.24.1.49.16.73-1 3.76.54 7.94 3.86 10.44v-.02c-1.03 3.54-2.06 7.09-3.08 10.63-.02.2-.04.39-.06.59-.24.06-.48.12-.72.2-1-.27-2.01-.54-3.01-.81-1.65-4.5-3.25-9.02-5.04-13.46-.2-.5-1.5-.56-2.29-.82-.13-.22-.18-.46-.15-.71 1.48-4.28-.43-9.13-3.85-9.72-.19-.01-.38-.03-.57-.07-8.52-2.26-18.86-.72-27.72-.72-8.67-.02-19.4-1.61-27.68.73zm35.74-52.35c.04-.26.08-.51.13-.77.74-5.05-.54-8.5-3.65-9.83.25-2.15 2.14-4.99-2.18-5.22l-.27.12c.04-.26.08-.53.12-.79.92-4.39-2.84-9.91-2.97-3-.05.24-.1.48-.15.72-4.5.22-2.36 3.11-2.1 5.24-.05.25-.11.5-.16.74-.94.72-2.45 1.27-2.7 2.18-.6 2.19-.62 4.55-.87 6.84.04.26.09.51.13.77 0 0-.28-.1-.28-.1-4.41.29-2.43 3.12-2.11 5.29-.05.25-.11.49-.16.74-.94.72-2.45 1.27-2.7 2.18-.6 2.19-.62 4.55-.87 6.84.04.25.09.51.13.76 0 0-.28-.1-.28-.1-4.41.29-2.43 3.12-2.11 5.29-1.2 3.49-2.4 6.98-3.6 10.47-1.29 3.48-2.58 6.97-3.86 10.45 7.13 1.81 15.47.78 22.81.78 7.45 0 15.58 1.01 22.83-.76-.04-1.45-.26-2.91-.09-4.33.27-2.27-.67-3.21-2.84-3.17l-.03-.05c1.34-5.64-1.66-9.87-4.6-14.12-.2-.02-.4-.04-.59-.07-1.06-2.72-2.12-5.44-3.19-8.17-.46-1.26-.92-2.51-1.38-3.77.32-2.17 2.3-5-2.11-5.29-.02.03-.3.13-.3.13z" fill="#ffaa5a"/><path d="m165.55 164.36c.02-.19.04-.39.06-.59 4.95-1.3 6.09-5.22 3.08-10.63v.02c-1.29-3.48-2.57-6.96-3.85-10.44-.05-.24-.1-.49-.16-.73-.66-1.52-1.32-3.04-1.97-4.57v.02c-1.28-3.48-2.57-6.96-3.85-10.45-.05-.24-.1-.49-.16-.73-.66-1.52-1.32-3.04-1.98-4.57v.02c-.54-1.97-1.08-3.95-1.62-5.92 1.31-4.37.72-7-1.85-11.11-2.49-3.97-2.17-4.12-3.26-7.99-.95-3.4-2.07-6.87-3.57-10.1-.8-1.73-2.28-1.25-2.86-3.02-.81-2.48.05-5.68-1.53-8.88-.82-1.67-4.04-4.82-4.52-6.14.45-1.43.64-2.9.57-4.4-.64-1.58-1.33-3.14-2.07-4.68-1.4-3.52-1.75-6.32-5.55-8.07-.13-.17-.18-.36-.17-.57-.22-1.81-.45-3.61-.67-5.42 6.23 3.94 9.77 20.1 12.62 27.24 5.19 13 10.12 26.23 14.95 39.37 4.15 11.28 8.24 22.55 12.68 33.7 1.99 4.95 8.03 25.49-4.32 18.64z" fill="#eceaec"/><path d="m174.56 189.15v2.24c-37.86 0-75.73.03-113.59-.09-1.81-.01-3.62-1.39-5.42-2.14 38.92-.01 77.85-.01 116.77-.02.75 0 1.49 0 2.24.01z" fill="#dbd8db"/><path d="m84.75 128.53c-.78 1.99-1.56 3.98-2.34 5.97-6.6 1.98-9.29 20.48-11.15 26.2-4.2-6.73 7.95-27.29 10.52-33.71 5.17-12.92 9.72-26.06 15.05-38.91 4.56-11 8.31-22.29 12.67-33.37 2.33-5.91 13.25-19.37 20.14-9.28-.91-.32-1.96-1.11-2.7-.88-2.07.64-5.12-2.54-6.28 1.55-.23.11-.47.14-.72.1-2.3-1.5-3.8-.43-5.32 1.41-1.54 1.86-3.05 3.57-1.39 6.09-.27.74-.54 1.48-.81 2.22-3.99 1.84-5.43 5.59-3.73 9.75-.75 1.99-1.51 3.98-2.26 5.97-3.99 1.84-5.43 5.59-3.73 9.75-.78 1.99-1.55 3.98-2.33 5.97-4.34 1.72-5.7 5.95-3.11 9.64-.18.36-.36.71-.55 1.07-.78 1.67-1.55 3.34-2.33 5.01-3.86 1.52-5.38 5.56-3.66 9.75-.78 1.99-1.56 3.98-2.33 5.97-4.18 1.64-5.89 6.19-3.64 9.73z" fill="#eceaec"/><path d="m55.55 189.16c1.81.74 3.61 2.13 5.42 2.14 37.86.13 75.73.09 113.59.09-1.17.25-2.34.72-3.51.72-37.18.04-74.35.32-111.52-.17-9.3-.12-18.24-3.27-22.03-13.51-.64-1.74-2.02-3.77.82-5.01 2.36 8.96 7.69 14.65 17.23 15.74z" fill="#dbd8db"/><path d="m149.91 138.97c.19.04.38.06.57.07 1.28 3.24 2.57 6.48 3.85 9.72-.02.25.03.49.15.71 2 4.99 2.47 10.76 7.33 14.28 1 .27 2.01.54 3.01.81-5.62 4.89-8.94-1.49-11.3-6.99-1.72-4.02-7.42-14.92-5.17-18.57.53-.01 1.05-.02 1.56-.03z" fill="#eceaec"/><path d="m71.27 160.7c1.86-5.72 4.55-24.22 11.15-26.2-2.49 6.81-4.98 13.62-7.47 20.43-1.8 4.91.12 8.39 5.3 9.63-3.96 4.73-5.96.24-8.98-3.86z" fill="#eceaec"/><path d="m174.56 189.15c-.75-.01-1.5-.01-2.25-.02-.53-9.48-2.68-22.31 8.1-25.52l.12.07c-.7 1-1.4 2.01-2.1 3.01-2.45 3.08-3.58 6.53-3.03 10.48-.09 3.99-.17 7.97-.26 11.96-.18 0-.38.01-.58.02z" fill="#eceaec"/><path d="m180.42 163.61c-1.86-6.76 7.51-8.75 12.11-5.94-.51.24-1.03.47-1.54.71-.47.07-.94.14-1.41.21-1.05.43-2.1.86-3.15 1.28-1.96 1.27-3.92 2.54-5.88 3.81-.01 0-.13-.07-.13-.07z" fill="#eceaec"/><path d="m149.91 138.97c-.52.01-1.03.02-1.55.03-17.95 0-35.9 0-53.84 0 8.28-2.34 19.01-.76 27.67-.76 8.87.01 19.2-1.53 27.72.73z" fill="#efe2d9"/><path d="m190.99 158.38c.51-.24 1.03-.47 1.54-.71 8.74-.01 17.49-.01 26.23-.02 0 0-.04.08-.04.08 0 .21.01.42.01.64-9.25 0-18.49 0-27.74.01z" fill="#fbdfb3"/><path d="m190.99 158.38c9.25 0 18.5-.01 27.75-.01 20.66.03 41.31.08 61.97.08 23.77 0 47.54-.06 71.3-.09 1.48.28 2.97.57 4.45.85 5.24 2.88 9.67 6.48 10.83 12.78.31 1.68.32 3.41.47 5.12v154.33c.02.48.03.96.05 1.43-.28 1.51-.57 3.02-.85 4.53-2.11-.76-4.22-2.18-6.34-2.19-50.5-.12-100.99-.1-151.49-.08-1.58 0-3.28.6-4.73.2-8.56-2.36-14.09-8.84-14.1-18.27-.05-51.12-.02-102.24-.05-153.36 0-1.7-.44-3.4-.68-5.1.47-.08.95-.15 1.42-.22zm104.07 80.14c1.28-1.24 2.56-2.47 3.84-3.71.19-.51.37-1.01.56-1.52-.13-4.87-2.2-6.72-7.38-6.59-6.04-.05-12.09-.27-18.13-.07-3.55.12-6.12-1.24-8.3-3.79-1.17-2.01-2.33-4.02-3.5-6.03.58-2.93-1.6-6.34 1.55-8.82 2.72-2.07 5.44-4.15 8.16-6.22.27-.01.54-.01.8-.02 3.48.98 6.95 1.96 10.43 2.94 6.14 6.03 14.03.05 9.56-7.19-4.85-7.84-18.32-8.58-26.03-6.72-1.81.93-3.61 1.87-5.42 2.8-5.65 1.43-10.04 10.87-11.09 16.04-.67 3.32-.66 6.61.17 9.92.75 2.94 4.6 6.92 4.76 9.54.32 5.54-6.13 7.36-10.28 11.42-4.84 4.74-8.52 10.36-10.86 16.72-5.6 15.2-3.01 31.03 6.59 44.02 7.03 9.5 20.29 17.27 32.04 18.24 3.53 0 7.07-.01 10.6-.01 5.81-.77 11.09-3.14 16.42-5.39 3.8-1.48 7.48-3.09 8.92-7.41.1-6-2.56-8.25-8.27-7.01-1.99 1.3-3.97 2.59-5.96 3.89-.73.33-1.45.67-2.18 1-2.99 1-5.98 1.99-8.98 2.99-1-.01-2-.01-3-.02-1.49 0-2.98-.01-4.47-.01-.76-.09-1.51-.18-2.27-.27-3.3-4.43-9.41-5.38-14.05-8.96-3.11-2.41-6.5-7.81-10.83-8.01-.47-.96-.94-1.92-1.41-2.89 2.1-3.32.09-9.38-3.53-10.65.17-2.76.35-5.51.52-8.27 2.52-2.99 11.51-14.53 9.1-18.66.76-.75 1.52-1.49 2.28-2.24 3.87 1.08 6.31-.49 7.36-4.74 2.02-.96 4.04-1.91 6.06-2.87 1.5-.4 2.99-.8 4.49-1.2 4.49.19 8.97.49 13.46.51 2.76.01 5.53-.41 8.29-.64z" fill="#ffc263"/><path d="m352.01 158.36c-23.77.03-47.54.09-71.3.09-20.66 0-41.31-.05-61.97-.08 0-.21-.01-.42-.01-.64l3.75-.09c41.62.02 83.23.03 124.85.09 1.55.01 3.11.41 4.68.63z" fill="#ffe3b6"/><path d="m367.76 331.43c0-51.44 0-102.88 0-154.33.23 1.3.65 2.6.65 3.91.03 48.84.03 97.68 0 146.51 0 1.31-.43 2.61-.65 3.91z" fill="#ffd99f"/><path d="m350.53 350.95c-.77.21-1.53.43-2.3.64-3.55-.68-4.67.68-4.58 4.34.27 10.02.11 20.05.13 30.08-.22.27-.44.54-.66.81-.04-9.69-.1-19.38-.13-29.07-.02-7.27 0-7.27 7.54-6.8z" fill="#ffe1c5"/><path d="m350.53 350.95c-7.54-.47-7.55-.47-7.53 6.8.03 9.69.08 19.38.13 29.07-5.14 13.47-18.16-4.29-22.96-9.09-8.78-8.77-17.34-17.83-26.46-26.25-15.66-2.89-33.55-.65-49.47-.65-15.89 0-33.82-2.19-49.46.64-.25 0-.49-.01-.74-.01-.57-1.18-1.13-3.35-1.71-3.35-2.17-.02-4.35.67-6.52 1.09-.75-.51-1.5-1.02-2.25-1.53-.03-5.03-.03-5.03-5.05-5.07-.38-.72-.76-1.43-1.15-2.15 3.39-2.06 1.29-4.88.73-7.26-.2-.83-2.21-1.23-3.39-1.82.17-.76.34-1.51.5-2.27.04-33.3.09-66.6.11-99.91.01-9.1-.08-18.21-.12-27.31-.01-.25-.01-.5-.02-.75 0-4-.01-8-.01-12 .08-3.99.17-7.97.25-11.96 2.46.09 2.88-1.65 2.87-3.48-.02-3.51 1.84-5.68 4.6-7.51 1.77-1.17 2.15-.59 2.16 1.13.01 1 .01 1.99.01 2.99v149.09 4.49c2.66 14.5 13.67 17.59 26.64 16.52 17.02-1.41 34.75-.04 51.84-.04 17.28-.01 34.56-.01 51.84-.01h26.96c5.86 0 14.01-1.48 19.3 1.41-2.9 3.61-6.76 6.14-10.39 8.97-.24.11-.47.18-.71.22z" fill="#ffaa5a"/><path d="m51.02 237.82c.02-.75.04-1.51.05-2.26.49.04 1.3-.09 1.42.14 2.48 4.91 6.88 2.63 10.6 2.88-4.63 5.63-9.24 5.34-12.07-.76z" fill="#dbd8db"/><path d="m175.18 201.88c.04 9.1.13 18.21.12 27.31-.02 33.3-.07 66.6-.11 99.91-.21-1.44-.6-2.87-.6-4.31-.04-40.96-.03-81.93-.04-122.89.21-.02.42-.02.63-.02z" fill="#fff7ef"/><path d="m174.69 331.37c1.18.6 3.19.99 3.39 1.82.57 2.38 2.66 5.2-.73 7.26-.89-3.03-1.78-6.06-2.66-9.08z" fill="#ffaa5a"/><path d="m185.8 349.19c2.17-.42 4.35-1.11 6.52-1.09.58.01 1.14 2.18 1.71 3.35-2.75-.75-5.49-1.5-8.23-2.26z" fill="#ffaa5a"/><path d="m178.5 342.59c5.02.04 5.02.04 5.05 5.07-1.69-1.69-3.37-3.38-5.05-5.07z" fill="#ffaa5a"/><path d="m26.29 185.43c3.2 3.23 4.98 7.58 8.4 10.58 2.29 2.01 4.81 2.73 6.63 5.11-8.2-1.28-14.26-7.6-15.03-15.69z" fill="#dbd8db"/><path d="m99.73 125.49c1.29-3.48 2.58-6.97 3.86-10.45 5.2-2.24 5.32-9.89 5.83-15-.04-.26-.08-.51-.13-.77 0 0 .28.1.28.1 5.53-3.14 5.11-9.24 5.84-15.05-.04-.26-.08-.51-.13-.77 0 0 .28.1.28.1 1.92.14 2.23-.91 3.05-2.59 1.68-3.43 1.31-8.17 5.66-10.11 0 0 .27-.12.27-.12-.04.26-.09.51-.13.77-.06.61-.39 1.38-.13 1.8 1.42 2.32-1.24 6.75 3.71 7.21.05.25.11.5.16.74-.04 2.06-2.89 5.24 2.1 5.29 0 0 .28-.1.28-.1-.04.26-.08.51-.13.77.25 2.33.59 4.65.71 6.98.13 2.5 1.37 2.12 2.9 1.31 1.06 2.72 2.12 5.44 3.19 8.17-1.94 3.4.36 13.32 4.66 14.17.18 0 .36 0 .54.02 0 0 .03.05.03.05.76 2.5 1.51 5.01 2.27 7.51-14.98-.01-29.98-.02-44.97-.03z" fill="#eceaec"/><path d="m130.49 51.41c3.8 1.75 4.15 4.54 5.55 8.07.73 1.54 1.42 3.1 2.07 4.68.07 1.51-.12 2.97-.57 4.4.48 1.32 3.7 4.48 4.52 6.14 1.58 3.2.72 6.4 1.53 8.88.58 1.77 2.06 1.29 2.86 3.02 1.49 3.23 2.61 6.7 3.57 10.1 1.08 3.87.77 4.03 3.26 7.99 2.57 4.1 3.16 6.74 1.85 11.11-.74-1.51-1.49-3.02-2.23-4.53-.05-.24-.1-.49-.16-.73-1.17-2.32-2.34-4.63-3.52-6.95-5.65-15.11-10.91-30.37-16.62-45.45-.73-2.24-1.42-4.48-2.11-6.73z" fill="#eceaec"/><path d="m124.28 70.95c-4.35 1.94-3.97 6.68-5.66 10.11-.82 1.68-1.14 2.72-3.05 2.59-.04-.26-.09-.51-.13-.77 1.19-3.01 2.38-6.01 3.57-9.01.05-.25.11-.5.16-.74.7-1.75 1.4-3.5 2.1-5.24.05-.24.1-.48.15-.72.49.11 1.2.05 1.43.35.62.8 1.04 1.75 1.54 2.65-.03.25-.07.52-.11.78z" fill="#eceaec"/><path d="m119.95 46.19c.25.04.49 0 .72-.1.75.06 1.5.13 2.24.19-1.79 2.72-4.77 3.18-6.8 5.98-2.26 3.1-1.55 5.89-5.03 8.13.45-1.5.89-2.99 1.34-4.49.27-.74.54-1.48.81-2.22 2.25-2.49 4.48-4.99 6.72-7.49z" fill="#ffaa5a"/><path d="m99.73 125.49c14.99.01 29.98.02 44.97.02 0 0 .33-.02.33-.02s.33.02.33.02c-7.25 1.77-15.38.76-22.83.76-7.33 0-15.66 1.03-22.8-.78z" fill="#f5cca8"/><path d="m115.42 84.33c-.72 5.81-.31 11.91-5.84 15.05-.04-.25-.09-.51-.13-.76 1.19-3.01 2.38-6.01 3.57-9.02.05-.25.11-.49.16-.74.75-1.52 1.49-3.03 2.24-4.53z" fill="#eceaec"/><path d="m122.91 46.28c-.75-.06-1.5-.13-2.24-.19 1.16-4.09 4.21-.91 6.28-1.55.74-.23 1.79.56 2.7.88.22 1.81.45 3.61.67 5.42-1.22-1.03-2.44-2.06-3.66-3.09-1.25-.49-2.5-.98-3.75-1.47z" fill="#eceaec"/><path d="m109.43 100.05c-.51 5.11-.63 12.76-5.83 15l3.6-10.47c.74-1.52 1.49-3.03 2.23-4.53z" fill="#eceaec"/><path d="m142.41 117.96c-.18-.01-.36-.02-.54-.02-1.09-3.03-2.27-6.02-3.22-9.09-.5-1.6-.57-3.34-.84-5.01 2.94 4.25 5.94 8.48 4.6 14.12z" fill="#ffaa5a"/><path d="m106.44 71.63c.75-1.99 1.51-3.98 2.26-5.97.74-1.51 1.49-3.02 2.23-4.53 1.42 4.13-1.86 7.09-2.7 10.66-.42 1.81.26 4.6-3.13 4.33.44-1.5.89-3 1.34-4.49z" fill="#ffaa5a"/><path d="m100.38 87.35c.78-1.99 1.55-3.98 2.33-5.97.74-1.51 1.49-3.02 2.23-4.53 1.42 4.13-1.86 7.09-2.7 10.66-.42 1.81.26 4.6-3.13 4.33.43-1.5.85-3 1.27-4.49z" fill="#ffaa5a"/><path d="m161.82 163.75c-4.86-3.52-5.34-9.29-7.33-14.28.79.26 2.09.32 2.29.82 1.79 4.45 3.38 8.97 5.04 13.46z" fill="#ffaa5a"/><path d="m137.8 103.84c.27 1.68.35 3.41.84 5.01.95 3.07 2.13 6.06 3.22 9.09-4.3-.86-6.59-10.77-4.66-14.17.21.03.41.05.6.07z" fill="#eceaec"/><path d="m100.38 87.35c-.42 1.5-.84 3-1.26 4.49-.62 1.72-1.23 3.43-1.85 5.15-2.59-3.7-1.23-7.92 3.11-9.64z" fill="#eceaec"/><path d="m126.66 47.75 3.66 3.09c-.01.21.04.4.17.57.69 2.25 1.39 4.49 2.08 6.74-3.68-2.5-5.09-6.28-5.91-10.4z" fill="#ffaa5a"/><path d="m168.69 153.14c3 5.41 1.86 9.33-3.08 10.63 1.03-3.54 2.06-7.08 3.08-10.63z" fill="#ffaa5a"/><path d="m84.75 128.53c-2.25-3.54-.54-8.1 3.65-9.75-1.22 3.26-2.43 6.5-3.65 9.75z" fill="#eceaec"/><path d="m90.73 112.82c-1.72-4.19-.2-8.23 3.66-9.75-.42 1.5-.84 2.99-1.26 4.49-.8 1.75-1.6 3.5-2.4 5.26z" fill="#eceaec"/><path d="m104.94 76.85c-.74 1.51-1.49 3.02-2.23 4.53-1.7-4.16-.27-7.91 3.73-9.75-.45 1.5-.89 2.99-1.34 4.49-.05.24-.11.48-.16.73z" fill="#eceaec"/><path d="m110.93 61.13c-.74 1.51-1.49 3.02-2.23 4.53-1.7-4.16-.27-7.91 3.73-9.75-.45 1.5-.89 2.99-1.34 4.49-.06.24-.11.48-.16.73z" fill="#eceaec"/><path d="m154.33 148.76c-1.28-3.24-2.56-6.48-3.85-9.72 3.42.59 5.34 5.44 3.85 9.72z" fill="#ffaa5a"/><path d="m93.13 107.56c.42-1.5.84-2.99 1.26-4.49.78-1.67 1.55-3.34 2.33-5.01-.3 2.69-.43 5.42-1 8.05-.14.64-1.69.97-2.59 1.45z" fill="#ffaa5a"/><path d="m128.16 81.35c-.05-.25-.11-.5-.16-.74-.45-1.5-.89-2.99-1.34-4.49l.08-.07c3.11 1.33 4.39 4.78 3.65 9.83-.75-1.51-1.49-3.02-2.23-4.53z" fill="#ffaa5a"/><path d="m124.4 70.16c-.5-.89-.92-1.85-1.54-2.65-.24-.3-.94-.25-1.43-.35.13-6.91 3.89-1.39 2.97 3z" fill="#ffaa5a"/><path d="m152.86 111.28c.74 1.51 1.49 3.02 2.23 4.53.54 1.97 1.08 3.95 1.62 5.92-3.37-2.51-4.88-6.59-3.85-10.45z" fill="#ffaa5a"/><path d="m134.02 95.61c-1.53.81-2.77 1.19-2.9-1.31-.12-2.33-.47-4.66-.71-6.98.74 1.51 1.49 3.01 2.23 4.52.46 1.25.92 2.51 1.38 3.77z" fill="#eceaec"/><g fill="#ffaa5a"><path d="m158.85 127c1.28 3.48 2.57 6.96 3.85 10.45-3.37-2.51-4.88-6.6-3.85-10.45z"/><path d="m164.84 142.72c1.28 3.48 2.57 6.96 3.85 10.44-3.31-2.5-4.86-6.67-3.85-10.44z"/><path d="m145.37 125.51-.33-.02s-.33.02-.33.02c-.76-2.5-1.51-5.01-2.27-7.51 2.17-.04 3.11.9 2.84 3.17-.17 1.43.05 2.9.09 4.34z"/><path d="m119.01 73.87c-1.19 3-2.38 6.01-3.57 9.01.25-2.29.27-4.65.87-6.84.25-.9 1.77-1.45 2.7-2.17z"/><path d="m113.02 89.59c-1.19 3.01-2.38 6.01-3.57 9.02.25-2.29.27-4.65.87-6.84.25-.91 1.77-1.46 2.7-2.18z"/><path d="m149.19 103.6c1.17 2.32 2.34 4.63 3.52 6.95-1.53.04-2.9.08-2.88-2.16.02-1.59-.41-3.19-.64-4.79z"/><path d="m132.64 91.84c-.74-1.51-1.49-3.01-2.23-4.52.04-.26.08-.51.13-.77 4.4.29 2.43 3.12 2.1 5.29z"/><path d="m124.42 71.6c.04-.26.09-.51.13-.77 4.33.23 2.43 3.07 2.19 5.22 0 0-.08.07-.08.07-.75-1.51-1.49-3.02-2.24-4.52z"/><path d="m156.72 121.7c.66 1.52 1.32 3.04 1.98 4.57-4.28.04-2.97-2.33-1.98-4.57z"/></g><path d="m128.16 81.35c.74 1.51 1.49 3.02 2.23 4.53-.04.26-.08.51-.13.77-5-.06-2.14-3.24-2.1-5.3z" fill="#eceaec"/><path d="m162.71 137.42c.66 1.52 1.32 3.04 1.97 4.57-4.28.04-2.96-2.34-1.97-4.57z" fill="#ffaa5a"/><path d="m121.28 67.88c-.7 1.75-1.4 3.5-2.1 5.24-.26-2.12-2.4-5.01 2.1-5.24z" fill="#ffaa5a"/><path d="m115.42 84.33c-.74 1.51-1.49 3.02-2.23 4.52-.32-2.17-2.3-5.01 2.11-5.29.04.25.08.51.12.77z" fill="#ffaa5a"/><path d="m109.43 100.05c-.74 1.51-1.49 3.01-2.23 4.52-.32-2.17-2.3-5.01 2.11-5.29.04.25.08.51.12.77z" fill="#ffaa5a"/><path d="m119.95 46.19c-2.24 2.5-4.47 5-6.71 7.5-1.66-2.52-.15-4.23 1.39-6.09 1.51-1.84 3.02-2.91 5.32-1.41z" fill="#eceaec"/><path d="m180.54 163.68c1.96-1.27 3.92-2.54 5.88-3.81.54 1.45 1.54 2.9 1.54 4.34.08 52.13.06 104.26.07 156.39 0 6.32 2.48 11.51 7.98 14.64 3.03 1.73 6.64 2.43 9.99 3.6-1.47.47-3.11 1.63-4.38 1.31-8.58-2.11-13.72-7.77-15.83-16.28 4.53-27.17 1.49-56.84 1.5-84.4 0-14.27 0-28.54 0-42.8 0-6.88 3.83-30.45-2.99-32.98-1.95 1-3.9 2-5.86 3 .7-1 1.4-2 2.1-3.01z" fill="#ffaa5a"/><path d="m178.44 166.69c1.95-1 3.9-2 5.86-3 .5 1.34 1.43 2.68 1.43 4.02.07 49.27.07 98.53.03 147.8 0 1.29-.47 2.59-.72 3.88 0-49.7 0-99.39 0-149.09 0-1 0-1.99-.01-2.99-.01-1.72-.39-2.31-2.16-1.13-2.76 1.83-4.62 4-4.6 7.51.01 1.83-.41 3.56-2.87 3.48-.54-3.94.59-7.4 3.04-10.48z" fill="#ffaa5a"/><path d="m206 338.85c-3.35-1.17-6.96-1.88-9.99-3.6-5.5-3.13-7.98-8.32-7.98-14.64-.01-52.13.01-104.26-.07-156.39 0-1.45-1.01-2.9-1.54-4.34 1.05-.43 2.1-.86 3.15-1.28.24 1.7.68 3.4.68 5.1.04 51.12.01 102.24.05 153.36.01 9.42 5.54 15.91 14.1 18.27 1.45.4 3.15-.2 4.73-.2 50.5-.01 100.99-.04 151.49.08 2.11.01 4.22 1.43 6.34 2.19-.16.51-.31 1.02-.47 1.53-1.37-.03-2.74-.08-4.11-.08-52.13 0-104.25 0-156.38 0z" fill="#ffc263"/><path d="m273.37 307.24c-.25.1-.5.2-.75.3-2.75-.82-5.5-1.63-8.25-2.45-6.6-3.54-12.38-7.96-15.88-14.82 4.33.2 7.72 5.61 10.83 8.01 4.64 3.58 10.75 4.52 14.05 8.96z" fill="#ffc263"/><path d="m247.37 257.32c1.93-2.51 3.86-5.02 5.79-7.53 2.41 4.13-6.58 15.67-9.1 18.66 1.11-3.71 2.21-7.42 3.31-11.13z" fill="#ffc263"/><path d="m247.08 287.38c-1.18-3.55-2.35-7.1-3.53-10.65 3.62 1.27 5.63 7.33 3.53 10.65z" fill="#ffc263"/><path d="m255.45 247.56c2.45-1.58 4.91-3.16 7.36-4.74-1.05 4.24-3.49 5.81-7.36 4.74z" fill="#ffc263"/><path d="m273.36 238.74c3.2-.06 6.39-.17 9.59-.18 4.06-.02 8.11.03 12.17.05-2.76.23-5.53.65-8.29.64-4.5-.02-8.98-.32-13.47-.51z" fill="#ffe7c2"/><path d="m272.55 319.47c3.53 0 7.07-.01 10.6-.01-3.53.01-7.07.01-10.6.01z" fill="#ffe4ba"/><path d="m206 338.85h156.37c1.37 0 2.74.05 4.11.08-1.8 6.46-7.62 10.95-15.27 11.8 3.64-2.83 7.49-5.36 10.4-8.97-5.29-2.89-13.44-1.41-19.3-1.41-8.99 0-17.97 0-26.96 0-17.28 0-34.56 0-51.84.01-17.09.01-34.82-1.37-51.84.04-12.96 1.07-23.98-2.01-26.64-16.52h.75c2.11 8.51 7.25 14.18 15.83 16.28 1.29.32 2.92-.83 4.39-1.31z" fill="#ffaa5a"/><path d="m185.79 323.88c-.25 0-.5 0-.75 0 0-1.5 0-2.99 0-4.49.25-1.29.72-2.59.72-3.88.04-49.27.04-98.53-.03-147.8 0-1.34-.94-2.68-1.43-4.02 6.82 2.53 2.99 26.1 2.99 32.98v42.8c0 27.57 3.03 57.24-1.5 84.41z" fill="#ffaa5a"/><path d="m124.42 71.6c.74 1.51 1.49 3.01 2.23 4.52.45 1.5.89 2.99 1.34 4.49-4.95-.47-2.29-4.9-3.71-7.21-.24-.42.08-1.19.14-1.8z" fill="#eceaec"/></svg>